<?xml version="1.0" encoding="UTF-8" standalone="no"?>
<svg
   xmlns:svg="http://www.w3.org/2000/svg"
   xmlns="http://www.w3.org/2000/svg"
   id="svg161"
   version="1.1"
   height="1200"
   width="810">
  <title
     id="title974">Dire Wolf Digital Logo</title>
  <g
     transform="matrix(1.6211919,0,0,1.6211919,-78.206393,-22.644297)"
     id="surface467">
    <path
       id="path2"
       d="m 137.375,249.25 -17.125,32.375 c 0,0 -1.625,8.75 -2.75,18.625 -1.125,9.875 -5.625,46.125 -7.25,60.625 -1.625,14.5 -6.125,50.5 -7.125,60.875 -1,10.375 -3.75,50 -5.875,68.875 -2.125,18.875 -3.875,29.5 -5.375,41.5 -1.5,12 -4,42 -4,42 -1.75,17 -5.605469,51.26172 -7.105469,68.32031 -1.5,17.0586 -2.769531,31.92969 -3.019531,38.6836 -0.25,6.75781 -1,17.37109 -1.125,21.12109 -0.125,3.75 -0.375,3.5 -1.25,5.02734 -0.875,1.52735 -0.75,2.59766 0.625,2.59766 1.375,0 11,0.375 19.375,0.375 8.375,0 40.25,1.625 54.5,2.125 14.25,0.5 44.375,1.375 60.125,1.5 15.75,0.125 52.125,2.25 62.5,2.75 10.375,0.5 9.375,2.625 14.375,2.625 5,0 13.75,-0.5 22.5,-0.5 8.75,0 29.5,0.5 34.94141,0.75 5.44531,0.25 3.55859,2.75 6.80859,2.75 3.25,0 51.625,1.25 66,1.5 14.375,0.25 47.25,2 57.625,2.625 10.375,0.625 33.375,2.375 35.125,2.625 1.75,0.25 3.125,-1 6,-1 2.875,0 4.875,0.25 6,0 1.125,-0.25 0.625,-1.375 0.625,-2.625 0,-1.25 0.25,-3.625 0,-9.375 -0.25,-5.75 -1,-31.75 -1.625,-47.83594 -0.625,-16.08203 0.625,-26.03906 0.5,-36.41406 -0.125,-10.375 -0.75,-15.875 -0.6875,-25.19141 C 520.75,597.24219 520.5,581.125 520,573.625 c -0.5,-7.5 0.375,-14.875 0.63672,-24.375 0.25781,-9.5 -0.51172,-29.375 -0.76172,-39 -0.25,-9.625 0.875,-24.625 0.75,-26.625 -0.125,-2 -1.75,-4 -2.25,-9.875 -0.5,-5.875 -0.5,-14.375 -0.75,-27.25 -0.25,-12.875 -0.25,-52.75 -0.5,-71.875 -0.25,-19.125 -0.125,-65.25 -0.25,-79 -0.125,-13.75 1,-41.625 0.75,-43.875 -0.25,-2.25 -3.25,-1.375 -4.75,-1.04297 -1.5,0.33203 -2.5,-0.082 -11.25,-0.70703 -8.75,-0.625 -36.25,-4.375 -46.5,-5.625 -10.25,-1.25 -32.875,-3.125 -39.25,-3.75 -6.375,-0.625 -18.15234,-1.67187 -26,-2.125 -7.84766,-0.45312 -25,-3.875 -34.75,-4.75 -9.75,-0.875 -34.875,-3.375 -45.75,-4.125 -10.875,-0.75 -21,-2 -33.125,-3.375 -12.125,-1.375 -33.75,-4.125 -48.875,-5.25 -15.125,-1.125 -34.875,-2 -44.75,-2.5 -9.875,-0.5 -19.375,-1.375 -23.75,-2 -4.375,-0.625 -5.25,-2.125 -6.125,-2.375 -0.875,-0.25 -2.625,0 -5,0 H 141 Z m 0,0"
       style="fill:#bfcfe3;fill-opacity:1;fill-rule:nonzero;stroke:none" />
    <path
       id="path4"
       d="M 90.386719,546.12109 C 89.121094,559.14453 87.875,574.125 87.875,574.125 c -1.75,17 -5.601562,51.26172 -7.101562,68.32031 -1.5,17.0586 -2.773438,31.92969 -3.023438,38.6836 -0.25,6.75781 -1,17.37109 -1.125,21.12109 -0.125,3.75 -0.375,3.5 -1.25,5.02734 -0.875,1.52735 -0.75,2.59766 0.625,2.59766 1.375,0 11,0.375 19.375,0.375 0.269531,0 0.5625,0.004 0.875,0.004 3.94141,-6.23829 6.89844,-13.23438 8.22656,-20.9375 5.29688,-30.625 -2.62109,-92.44141 -14.089841,-143.19532"
       style="fill:#d7deeb;fill-opacity:1;fill-rule:nonzero;stroke:none" />
    <path
       id="path6"
       d="m 134.90625,620.71094 c 0,0 7.61328,60.47265 1.77344,81.95312 -0.74219,2.73047 -1.79297,5.79297 -3.03906,9.04297 6.24609,0.27344 12.01562,0.51953 16.23437,0.66797 13.02734,0.45703 39.3125,1.22656 55.76563,1.44922 -7.74219,-4.6875 -15.35547,-9.66406 -19.84766,-13.44922 -10.63672,-8.96875 -50.88672,-79.66406 -50.88672,-79.66406"
       style="fill:#d7deeb;fill-opacity:1;fill-rule:nonzero;stroke:none" />
    <path
       id="path8"
       d="m 129.17188,562.52344 c -0.625,-25.64844 6.88281,-46.60547 19.08203,-70.07031 12.19922,-23.46094 38.16406,-54.42969 38.16406,-54.42969 l -82.24219,-0.9375 58.46875,-94.78125 h -21.89844 l -29.95312,13.80859 c -0.20313,1.76172 -0.38672,3.36328 -0.54297,4.76172 -1.625,14.5 -6.125,50.5 -7.125,60.875 -1,10.375 -3.75,50 -5.875,68.875 -0.01172,0.0898 -0.01953,0.17578 -0.03125,0.26563 2.714844,17.10156 5.81641,32.51171 8.9375,41.29296 8.89062,25.02344 23.01563,30.33985 23.01563,30.33985"
       style="fill:#d7deeb;fill-opacity:1;fill-rule:nonzero;stroke:none" />
    <path
       id="path10"
       d="m 180.78906,333.23047 -51.61328,91.02734 74.76172,-1.55859 c 0,0 27.52734,-26.59375 46.60938,-43.17188 19.08203,-16.57812 45.35546,-39.41406 45.35546,-39.41406 l -100.41406,-43.48047 63.50391,-36.28906 c 0,0 -34.09766,-4.06641 -47.54688,-3.75 -13.45312,0.3125 -53.80468,3.44141 -80.70703,27.83594 -4.90234,4.44922 -9.16406,8.78906 -12.90234,13.03906 -0.11719,0.91406 -0.23047,1.83984 -0.33594,2.78125 -0.75391,6.625 -3.02734,25.12109 -4.93359,40.95703 l 30.37109,-12.04297 z m 0,0"
       style="fill:#d7deeb;fill-opacity:1;fill-rule:nonzero;stroke:none" />
    <path
       id="path12"
       d="m 202.67969,219.49609 c -7.92578,-0.41015 -15.1875,-0.75 -20.05469,-0.99609 -1.12109,-0.0586 -2.23437,-0.11719 -3.33984,-0.18359 -2.53907,5 -4.46485,10.50781 -5.71875,16.58203 0,0 13.72265,-9.25 29.11328,-15.40235"
       style="fill:#d7deeb;fill-opacity:1;fill-rule:nonzero;stroke:none" />
    <path
       id="path14"
       d="m 198.60938,244.86328 97.30078,8.27735 -64.67578,43.28125 82.01171,31.14062 c 0,0 36.87891,-20.71094 82.52735,-31.73828 0,0 1.86719,-6.25781 5.29687,-12.51953 3.42969,-6.26563 7.48828,-10.33985 7.48828,-10.33985 l -37.75,-37.05859 c -5.71484,-0.89844 -11.41015,-1.77344 -15.68359,-2.15625 -9.75,-0.875 -34.875,-3.375 -45.75,-4.125 -10.875,-0.75 -21,-2 -33.125,-3.375 -9.24219,-1.04687 -23.99609,-2.89062 -37.19141,-4.21094 -3.08593,9.69922 -40.44921,22.82422 -40.44921,22.82422"
       style="fill:#d7deeb;fill-opacity:1;fill-rule:nonzero;stroke:none" />
    <path
       id="path16"
       d="m 517.03516,280.20313 c 0.27343,-12.96875 0.76562,-26.89063 0.58984,-28.45313 -0.25,-2.25 -3.25,-1.375 -4.75,-1.04297 -1.5,0.33203 -2.5,-0.082 -11.25,-0.70703 -3.02734,-0.21484 -8.30078,-0.80859 -14.32031,-1.53906 11.1289,10.69531 22.79297,23.75 29.73047,31.74219"
       style="fill:#d7deeb;fill-opacity:1;fill-rule:nonzero;stroke:none" />
    <path
       id="path18"
       d="m 495.80859,469.53516 c -10.16796,11.89062 -31.60937,26.20703 -31.60937,26.20703 0,0 18.14453,-1.72266 34.71875,3.75 7.25,2.39453 13.96484,5.95312 21,12.34375 -0.0156,-0.55469 -0.0312,-1.08594 -0.043,-1.58594 -0.25,-9.625 0.875,-24.625 0.75,-26.625 -0.125,-2 -1.75,-4 -2.25,-9.875 -0.4375,-5.13672 -0.49219,-12.27734 -0.66797,-22.58984 -5.64844,-3.07032 -9.24609,-4.21875 -9.24609,-4.21875 0,0 -2.48438,10.70703 -12.65235,22.59375"
       style="fill:#d7deeb;fill-opacity:1;fill-rule:nonzero;stroke:none" />
    <path
       id="path20"
       d="m 479.68359,440.37109 c -7.19531,6.09766 -24.86718,17.20313 -29.09375,19.70704 -4.22265,2.5039 -4.53906,6.72656 -3.91015,8.91406 0.62109,2.1914 4.94531,3.5039 10.73047,2.40625 5.78906,-1.08985 24.77343,-9.91406 41.50781,-29.3086 12.79297,-14.82421 17.08203,-33.83593 18.39844,-41.98046 -0.004,-0.89844 -0.008,-1.79297 -0.0156,-2.67969 -9.78125,23.57031 -30.55469,36.94922 -37.61719,42.9414"
       style="fill:#d7deeb;fill-opacity:1;fill-rule:nonzero;stroke:none" />
    <path
       id="path22"
       d="m 418.05859,268.79297 c 2.34375,-1.72266 6.57032,-3.12891 9.38282,-3.12891 2.8164,0 7.82031,0.46875 14.07812,3.28125 6.25781,2.81641 23.14844,13.45313 39.25781,27.6875 11.21875,9.91016 27.38672,27.16797 36.17578,36.74219 -0.004,-3.8125 -0.008,-7.58203 -0.008,-11.21094 -9.82422,-23.71093 -26.48047,-53.2539 -31.47656,-60.5664 -3.92578,-5.7461 -9.61328,-11.07813 -15.48047,-15.32422 -5.99219,-0.77344 -11.41015,-1.47656 -14.86328,-1.89844 -10.25,-1.25 -32.875,-3.125 -39.25,-3.75 -6.375,-0.625 -18.15234,-1.67187 -26,-2.125 -0.25,-0.0156 -0.53516,-0.0391 -0.80078,-0.0586 1.89453,1.79687 3.72266,3.55078 5.36719,5.16797 9.53906,9.38671 23.61718,25.18359 23.61718,25.18359"
       style="fill:#d7deeb;fill-opacity:1;fill-rule:nonzero;stroke:none" />
    <path
       id="path24"
       d="m 426.19141,282.66016 c -11.41797,-1.66797 -13.44922,2.86718 -14.23047,4.89843 -0.78516,2.03516 -5.16406,22.50782 -7.82422,52.85938 -2.66016,30.35156 -1.32422,55.97266 -0.28125,70.04687 1.45312,19.60547 10.44922,26.9375 10.44922,26.9375 0,0 -2.97266,-14.86328 -3.28516,-35.03906 -0.3125,-20.17578 3.59766,-67.09765 5.16016,-79.61328 1.5664,-12.51172 4.07031,-25.02344 5.6289,-27.37109 1.56641,-2.34375 6.57032,-1.71875 10.64063,-1.5625 4.0625,0.15625 12.04297,1.09375 20.01562,4.6914 7.98047,3.59766 17.83204,10.79297 25.02735,18.30078 7.19531,7.50782 15.48437,17.51954 22.05469,28.6211 6.57031,11.10547 14.70312,30.5 14.70312,30.5 l 2.89062,0.11328 c -0.004,-0.48047 -0.0117,-0.96094 -0.0156,-1.41797 -0.0391,-2.91797 -0.0664,-6.46484 -0.0898,-10.42578 -5.07422,-10.95313 -13.51953,-27.17188 -23.7461,-39.10156 -16.89062,-19.70703 -32.49609,-37.37891 -67.09765,-42.4375"
       style="fill:#d7deeb;fill-opacity:1;fill-rule:nonzero;stroke:none" />
    <path
       id="path26"
       d="m 485.94141,349.87891 c 7.50781,12.04297 11.72656,24.80078 13.13672,35.90625 1.41015,11.10547 -2.03516,25.96484 -2.03516,25.96484 0,0 10.79297,-14.70703 13.14062,-22.21094 2.34766,-7.50781 0.78125,-11.26172 -2.8164,-20.33593 -3.59766,-9.07032 -14.85938,-26.11719 -32.69141,-43.63672 -17.82812,-17.51563 -39.25781,-21.26953 -39.25781,-21.26953 35.35547,19.0039 50.52344,45.58203 50.52344,45.58203"
       style="fill:#d7deeb;fill-opacity:1;fill-rule:nonzero;stroke:none" />
    <path
       id="path28"
       d="m 442.46094,444.125 c 8.28515,-2.50391 21.89453,-10.01172 31.58984,-17.98828 9.69922,-7.97656 17.98828,-19.08203 19.70703,-22.36328 1.72266,-3.28516 2.19141,-7.98047 1.25391,-13.76563 -0.9375,-5.78515 -8.13281,-29.03906 -18.92578,-43.53515 -10.79297,-14.49219 -22.14844,-28.22266 -49.83203,-33.85547 0,0 -4.13282,17.69531 -5.37891,33.85547 -1.25391,16.16406 -3.91016,50.88281 -1.5625,63.39843 2.34375,12.51172 9.22656,26.58985 11.57031,29.875 2.34375,3.28125 3.28516,6.88282 11.57813,4.37891"
       style="fill:#d7deeb;fill-opacity:1;fill-rule:nonzero;stroke:none" />
    <path
       id="path30"
       d="m 426.97266,642.91797 c -22.52344,-17.83203 -30.02735,-56.3086 -29.09375,-88.21485 0.9414,-31.90625 17.20703,-75.07421 19.71093,-80.70703 2.5,-5.6289 6.57032,-16.26562 -3.4414,-23.77343 -10.01172,-7.50782 -16.26953,-2.8125 -16.26953,-2.8125 l -59.7461,75.69921 36.60157,0.9375 -36.60157,44.10938 39.73047,15.64062 -17.20703,75.69922 48.79688,3.12891 -1.76563,60.93359 c 1.55859,0.0352 3.01953,0.0625 4.36719,0.0938 L 454.19141,688.58984 468.21484,726 c 1.85157,0.10156 3.48829,0.19531 4.87891,0.27734 l 15.50391,-25.48828 c 4.1875,7.48438 9.92968,17.25 16.22265,27.76172 2.71485,0.21875 4.60157,0.38672 5.05469,0.44922 1.75,0.25 3.125,-1 6,-1 2.875,0 4.875,0.25 6,0 1.125,-0.25 0.625,-1.375 0.625,-2.625 0,-1.25 0.25,-3.625 0,-9.375 -0.0156,-0.39453 -0.0391,-0.89453 -0.0586,-1.46875 l -24.77344,-43.14453 c -17.51563,-1.56641 -48.17188,-10.64063 -70.69531,-28.46875"
       style="fill:#d7deeb;fill-opacity:1;fill-rule:nonzero;stroke:none" />
    <path
       id="path32"
       d="m 496.73047,564.08984 c 1.25391,2.34766 8.60547,12.66797 8.60547,12.66797 0,0 -0.46875,7.50781 -0.3125,14.54688 0.15625,7.03906 -0.78516,17.51562 2.03125,20.33203 2.54687,2.54687 7.78906,3.80859 13.75,3.09765 -0.0859,-2.51953 -0.13672,-5.14453 -0.11719,-8.17578 0.008,-1.00781 0.008,-2.10937 0.008,-3.25781 -0.69922,-0.27734 -1.34765,-0.57422 -1.91015,-0.89453 -3.59766,-2.03125 -5.94141,-7.19141 -6.57032,-9.69922 -0.625,-2.5 -1.5625,-15.48047 -1.5625,-15.48047 0,0 4.86328,3.77344 9.79688,7.44141 -0.0742,-2.76563 -0.16016,-5.36328 -0.26172,-7.60547 -11.04297,-8.42578 -27.21094,-21.73438 -27.21094,-21.73438 0,0 2.50391,6.41407 3.75391,8.76172"
       style="fill:#d7deeb;fill-opacity:1;fill-rule:nonzero;stroke:none" />
    <path
       id="path34"
       d="M 465.14063,587.55078 C 454.5,580.35547 443.86328,567.6875 446.83594,554.54687 c 2.97265,-13.13671 12.19922,-19.55078 42.38672,-7.34765 0,0 -16.26563,-27.53125 -38.16407,-26.75 -21.89453,0.78515 -22.36328,26.75 -22.51953,30.8164 -0.16015,4.0625 4.06641,26.42969 18.92188,38.08204 14.85937,11.65234 27.21484,14.3125 26.74609,26.82421 -0.46875,12.51172 -20.64453,10.01172 -31.75,1.40625 0,0 0.11719,32.88282 30.03125,33.00391 17.20313,0.0703 19.21094,-24.07422 19.23438,-32.375 0.0547,-16.26562 -15.94922,-23.46484 -26.58203,-30.65625"
       style="fill:#d7deeb;fill-opacity:1;fill-rule:nonzero;stroke:none" />
    <path
       id="path36"
       d="m 502.60938,650.58203 c 6.9375,-5.85156 13.20703,-8.52734 18.58203,-9.125 0.1289,-3.32422 0.22265,-6.49609 0.18359,-9.70703 -0.0312,-2.44531 -0.0859,-4.61328 -0.15625,-6.62891 -19.87891,3.36719 -18.60937,25.46094 -18.60937,25.46094"
       style="fill:#d7deeb;fill-opacity:1;fill-rule:nonzero;stroke:none" />
    <path
       id="path38"
       d="m 357.83984,673.41797 c -3.7539,-4.22656 -8.75781,-21.89844 -10.63281,-28.46875 -1.8789,-6.56641 -4.22265,-20.01563 -20.33594,-30.5 -16.10546,-10.47656 -55.36718,-18.61328 -98.84765,-17.20313 -43.48438,1.41016 -57.08594,7.03907 -62.875,11.10547 -5.78906,4.06641 -7.50781,14.85938 -5.00391,19.86328 2.5,5.00391 21.58203,32.53125 29.71875,42.85547 8.12891,10.32422 16.73438,22.83594 27.52344,29.40625 5.32422,3.24219 15.94531,8.88281 26.93359,14.6836 11.96485,0.59765 23.14063,1.22265 28.17969,1.46484 10.375,0.5 9.375,2.625 14.375,2.625 5,0 13.75,-0.5 22.5,-0.5 7.04297,0 21.86328,0.32422 30.21094,0.58203 0.84765,-4.05078 1.36328,-6.34375 1.36328,-6.34375 0,0 4.8125,3.9375 11.38672,9.27734 4.92187,0.0859 22.1875,0.51172 38.1914,0.89454 -8.27734,-17.76563 -18.91015,-37.12891 -20.48437,-40.98438 -3.13281,-7.66406 -8.44531,-4.53516 -12.20313,-8.75781"
       style="fill:#d7deeb;fill-opacity:1;fill-rule:nonzero;stroke:none" />
    <path
       id="path40"
       d="m 186.41797,533.32812 c 0,0 -2.08594,-12.30468 5.42187,-36.28515 7.50782,-23.98438 24.81641,-61.73047 24.81641,-61.73047 0,0 -37.11719,33.57422 -55.67969,74.66016 -18.5625,41.08203 -19.39453,56.51562 -12.51172,93.84375 0,0 30.86329,-17.72657 62.98047,-22.31641 32.11719,-4.58984 72.36328,-8.12891 135.76172,17.51953 l -26.48828,-30.44531 19.8125,-24.42578 c 0,0 -27.10937,-25.83594 -81.95703,-27.08594 -27.14063,-0.62109 -72.15625,16.26562 -72.15625,16.26562"
       style="fill:#d7deeb;fill-opacity:1;fill-rule:nonzero;stroke:none" />
    <path
       id="path42"
       d="m 302.36719,359.84766 c 0,0 -48.17188,38.76172 -66.3125,64.41015 -18.14453,25.65235 -33.9961,84.88282 -33.9961,84.88282 0,0 25.44141,-12.92969 60.0625,-12.9336 41.28907,-0.004 66.73047,14.1836 66.73047,14.1836 l 57.76953,-72.15625 -105.10546,9.59375 z m 0,0"
       style="fill:#d7deeb;fill-opacity:1;fill-rule:nonzero;stroke:none" />
    <path
       id="path44"
       d="m 322.17969,346.47266 c 0,0 -2.29297,16.89453 -5.83594,35.03515 -3.54687,18.14453 -12.93359,50.05078 -12.93359,50.05078 l 80.91797,-7.30078 c -0.83594,-60.68359 1.875,-78.61718 4.3789,-90.92187 2.5,-12.30469 8.54688,-23.14844 8.54688,-23.14844 0,0 -26.27344,7.30078 -43.58203,15.64063 -17.3086,8.33984 -31.49219,20.64453 -31.49219,20.64453"
       style="fill:#d7deeb;fill-opacity:1;fill-rule:nonzero;stroke:none" />
    <path
       id="path46"
       d="m 137.375,249.25 -17.125,32.375 c 0,0 -1.625,8.75 -2.75,18.625 -1.125,9.875 -5.625,46.125 -7.25,60.625 -1.625,14.5 -6.125,50.5 -7.125,60.875 -1,10.375 -3.75,50 -5.875,68.875 -2.125,18.875 -3.875,29.5 -5.375,41.5 -1.5,12 -4,42 -4,42 -1.75,17 -5.605469,51.26172 -7.105469,68.32031 -1.5,17.0586 -2.769531,31.92969 -3.019531,38.6836 -0.25,6.75781 -1,17.37109 -1.125,21.12109 -0.125,3.75 -0.375,3.5 -1.25,5.02734 -0.875,1.52735 -0.75,2.59766 0.625,2.59766 1.375,0 11,0.375 19.375,0.375 8.375,0 40.25,1.625 54.5,2.125 14.25,0.5 44.375,1.375 60.125,1.5 15.75,0.125 52.125,2.25 62.5,2.75 10.375,0.5 9.375,2.625 14.375,2.625 5,0 13.75,-0.5 22.5,-0.5 8.75,0 29.5,0.5 34.94141,0.75 5.44531,0.25 3.55859,2.75 6.80859,2.75 3.25,0 51.625,1.25 66,1.5 14.375,0.25 47.25,2 57.625,2.625 10.375,0.625 33.375,2.375 35.125,2.625 1.75,0.25 3.125,-1 6,-1 2.875,0 4.875,0.25 6,0 1.125,-0.25 0.625,-1.375 0.625,-2.625 0,-1.25 0.25,-3.625 0,-9.375 -0.25,-5.75 -1,-31.75 -1.625,-47.83594 -0.625,-16.08203 0.625,-26.03906 0.5,-36.41406 -0.125,-10.375 -0.75,-15.875 -0.6875,-25.19141 C 520.75,597.24219 520.5,581.125 520,573.625 c -0.5,-7.5 0.375,-14.875 0.63672,-24.375 0.25781,-9.5 -0.51172,-29.375 -0.76172,-39 -0.25,-9.625 0.875,-24.625 0.75,-26.625 -0.125,-2 -1.75,-4 -2.25,-9.875 -0.5,-5.875 -0.5,-14.375 -0.75,-27.25 -0.25,-12.875 -0.25,-52.75 -0.5,-71.875 -0.25,-19.125 -0.125,-65.25 -0.25,-79 -0.125,-13.75 1,-41.625 0.75,-43.875 -0.25,-2.25 -3.25,-1.375 -4.75,-1.04297 -1.5,0.33203 -2.5,-0.082 -11.25,-0.70703 -8.75,-0.625 -36.25,-4.375 -46.5,-5.625 -10.25,-1.25 -32.875,-3.125 -39.25,-3.75 -6.375,-0.625 -18.15234,-1.67187 -26,-2.125 -7.84766,-0.45312 -25,-3.875 -34.75,-4.75 -9.75,-0.875 -34.875,-3.375 -45.75,-4.125 -10.875,-0.75 -21,-2 -33.125,-3.375 -12.125,-1.375 -33.75,-4.125 -48.875,-5.25 -15.125,-1.125 -34.875,-2 -44.75,-2.5 -9.875,-0.5 -19.375,-1.375 -23.75,-2 -4.375,-0.625 -5.25,-2.125 -6.125,-2.375 -0.875,-0.25 -2.625,0 -5,0 H 141 Z m 2.125,-45.5 c 0,0 6.125,-0.125 8,0 1.875,0.125 2.5,2.125 4.375,2.875 1.875,0.75 10.99609,2.75 17,3 6,0.25 68.125,2.625 72.375,2.75 4.25,0.125 6.75,0.75 8.5,1.5 1.75,0.75 8.75,3.125 23.625,4.625 14.875,1.5 75.75,7 86.375,8.125 10.625,1.125 50.125,5.625 65.25,6.875 15.125,1.25 35.625,4.375 51.875,5.625 16.25,1.25 35.125,2.72656 40.125,2.73828 5,0.0117 8.125,-0.98828 8.5,2.76172 0.375,3.75 1.25,31.75 0.875,51.5 -0.375,19.75 -1.125,55.125 -0.875,60.625 0.25,5.5 0.125,15.125 0,17.375 -0.125,2.25 1.11719,6.375 1.27734,16.375 0,0 1.22266,25.875 0.97266,30.875 -0.25,5 -0.75,9.875 -0.75,12.75 0,2.875 0.875,47 1.125,57.5 0.25,10.5 1.75,68.25 1.875,75 0.125,6.75 -1.125,8.75 -0.875,14.625 0.25,5.875 0.26953,42.625 0.88281,63.5 0.61719,20.875 3.11719,69.5 3.61719,74 0.5,4.5 0.375,6.875 0,8.125 -0.375,1.25 -1.625,2.75 -1.625,2.75 0,0 0.5,6.25 0.375,7.375 -0.125,1.125 -1.5,3.375 -5.875,3.5 -4.375,0.125 -57.75,-1.5 -85,-3.75 -27.25,-2.25 -72.125,-6.875 -98.875,-7.625 -26.75,-0.75 -41.5,0 -43.875,0.25 -2.375,0.25 -5.125,2 -8.125,1.625 -3,-0.375 -47.125,-3.375 -60.125,-4.25 -13,-0.875 -57,-2.5 -72.5,-2.625 -15.5,-0.125 -28.5,0.125 -33.25,0 C 120,724 113,723 107.125,723.125 c -5.875,0.125 -26.125,1.75 -30.75,2.25 -4.625,0.5 -8,1.125 -10.125,0.5 C 64.125,725.25 62.75,722.5 63,721 c 0.25,-1.5 1,-1.75 1.25,-3 0.25,-1.25 0.625,-5.625 0.75,-6.375 0.125,-0.75 -2.058594,-1 -2.027344,-2 C 63,708.625 64.125,696.25 65.25,689.625 66.375,683 71.375,638.75 72.75,626.875 74.125,615 74.875,596.375 76,584.5 c 1.125,-11.875 7,-69.375 8.5,-83.875 1.5,-14.5 7.75,-69.875 9.375,-85.625 1.625,-15.75 8.5,-84 10.375,-98.25 1.875,-14.25 2.875,-29.125 3.5,-35.125 0.625,-6 22.625,-36 22.625,-36 z m 0,0"
       style="fill:#0f0c0c;fill-opacity:1;fill-rule:nonzero;stroke:none" />
    <path
       id="path48"
       d="m 231.58594,551.52734 c 0,0 -1.41797,2.09766 -3.5,2.32422 C 226,554.08203 220.25,554.58594 218.41797,554.5 216.58594,554.418 209,554.30078 207.83594,553.85937 c -1.16797,-0.4414 -6.08594,-0.4414 -6.08594,-0.4414 0,0 -2.25,0 -2.75,-1 -0.5,-1 0,-2.75 -2.66406,-3.25 -2.66797,-0.5 -7.16797,-3.83594 -7.16797,-3.83594 l 7.41797,-17 -0.88281,-9.5 -2.36719,-10.66406 14.41406,-23.33594 16.08594,-39 -4.75,-29.91406 -2.16797,-5.33594 c 0,0 -1.08203,-1.08203 -3.83203,0 -2.75,1.08594 -6,6 -8.5,18.91797 -2.5,12.91797 -5.58594,18 -5.58594,18 l -3.16406,14.41797 -6.66797,6 -21.75,35.16406 5.25,37.25 5.64453,7.08594 c 0,0 2.85547,3.58203 4.9375,5.66406 2.08594,2.08594 5.16797,4.83594 5.16797,4.83594 l 4.83203,18.75 -0.83203,18.5 c 0,0 -6.08594,0.16406 -8.04297,0 C 182.41797,595 173.16797,594.75 173.16797,594.75 c 0,0 -4.66797,0.0859 -6.91797,-0.25 -2.25,-0.33203 -13.33203,-0.83203 -13.33203,-0.83203 0,0 -5.08203,-0.5 -6,-1.25 -0.91797,-0.75 -2.5,-4.41797 -2.5,-4.41797 L 148,561.58203 c 0,0 1.33594,-8.99609 1,-11.83203 -0.33203,-2.83203 -5.66406,-31.33203 -5.66406,-31.33203 L 149.75,499.5 l 1.58594,-25.58203 -5.66797,-17.08594 -10.5,-22.58203 c 0,0 -4.07031,-22.4375 -0.66797,-33.66797 1.66797,-5.5 1.25,-10.33203 1.25,-10.33203 0,0 -1.5,-10.41797 -1.41406,-15.41797 0.082,-5 -1.19141,-33.08203 -1.19141,-33.08203 0,0 -0.66406,-16.33203 -0.0781,-21.5 l 7.26953,-15.08203 c 0,0 -7.00391,-5.41797 -11,-6.16797 -4,-0.75 -7.75,-2.91797 -7.75,-2.91797 L 139,277.75 l 17.33594,-7.41797 c 0,0 4.66406,8 8.16406,11 3.5,3 21.75,9.28906 27.66797,9.3711 5.91797,0.082 14.16797,-1.70313 14.16797,-1.70313 0,0 36.66406,-16.5 40,-21.83203 3.33203,-5.33594 6,-8 6,-8 l 22.83203,-8.62891 c 0,0 31.08203,-10.28906 38.33203,-11.37109 7.25,-1.08594 13.83594,0 13.83594,0 0,0 26.33594,2.08203 33.66797,4.16406 7.33203,2.08594 15.99609,7.20703 15.99609,7.20703 0,0 13,10.87891 16.625,13.29297 3.625,2.41797 7.375,7.83594 7.375,7.83594 0,0 7.40625,17.33984 10.5,19.33203 3.09375,1.99219 7.25,4.66797 7.25,4.66797 L 424,286.5 l 7,-7.35547 7.5,-5.47656 9,-3.33594 5.44531,6 3.22266,15.33594 L 456.83594,322 v 12.16797 l 8.83203,29.5 2,15.5 -1.16797,16.66406 -3.33203,10.33594 -7.33594,9.78906 -9.5,8.875 -11.1914,10.01172 L 429,440.32422 425.83203,468.5 429,483.66797 436.66797,514 l 3.49219,7.41797 1.30468,21.25 6.20313,26.83203 c 0,0 1.62109,4.83203 2.89453,6 1.27344,1.16797 7.10156,3.83203 7.9375,4.33203 0.83594,0.5 7.83594,6.03906 9.16797,7.1875 1.33203,1.14844 5.8125,6.3125 5.8125,6.3125 v 17.83594 L 472.16797,612 c 0,0 -1.66797,3 -2.5,2.83203 C 468.83594,614.66797 467,613 466,613 c -1,0 -6.33203,1.83984 -6.33203,1.83984 0,0 -1.5,0.57813 -3.16797,0.66016 -1.66406,0.082 -4.75,0 -4.75,0 l -9.16406,1.33203 c 0,0 -2.25,-0.082 -3.75,0 -1.5,0.0859 -1.83594,0.0859 -4.33594,-0.75 -2.5,-0.83203 -9.25,-6.66406 -9.25,-6.66406 l -6.16406,-7.08203 -7.16797,-25.16797 -4.58203,-6.75 -0.41797,-11.16797 -0.16797,-6.75 -0.58203,-10.83203 -1,-13.16797 2.29297,-35.33203 -1.71094,-1.33594 c 0,0 -10.16406,-4.08203 -14.25,-6.08203 -4.08203,-2 -14,-19.41797 -14,-19.41797 l -19.08203,-31.91406 -18.33203,-6.40234 -11.16797,-8.59766 -7.25,-11.33594 L 313,409.91797 c 0,0 -7.75,2.66406 -12.41406,11.83203 l 3.66406,13.75 21.25,31.75 1.41797,8.41797 34.33203,43 0.0859,11.41406 L 354,534.66797 337,535.75 320.91797,530.08203 310.83594,520.5 c 0,0 3.47656,-1 4.07031,-2.16797 0.59375,-1.16406 0,-4.66406 0,-4.66406 l -14.73828,-31.44922 c 0,0 -2.33203,-4.80078 -3.33203,-6.96875 -1,-2.16797 -5.5,-8 -5.5,-8 L 260,445.75 l -5.5,9.41797 -42.35156,49.5 L 211.41797,522.75 225,538.66797 l 1.5,1.16406 c 0,0 1.25,0.83594 1.25,2.16797 0,0 3.58594,-0.13281 3.75,2.34766"
       style="fill:#ffffff;fill-opacity:1;fill-rule:nonzero;stroke:none" />
    <path
       id="path50"
       d="m 131.33203,301.16797 c 0,0 -50.304686,-5.83594 -64.33203,-82.85156 -11.566406,-63.5 7.625,-119.523441 54.58203,-146.984379 C 146.66797,56.667969 164.73438,56.199219 181.88281,52.433594 196,49.332031 214.55859,41.070313 228.66797,27.5 c 0,0 -1.33594,17.332031 -22.33594,25.667969 0,0 19,1.664062 31.33594,4.164062 C 250,59.832031 293.42188,71.730469 309.5,70 c 26.33203,-2.832031 31,-13.167969 31,-13.167969 0,0 -1.37891,43.203129 -42.87891,42.867188 -41.5,-0.332031 -72.375,-21.117188 -102.20703,-14.605469 -47.33203,10.332031 -60.5625,35.80469 -60.5625,35.80469 0,0 13.13282,-31.609377 52.81641,-41.566409 47.16406,-11.832031 81.65234,6.226563 108.62891,4.070313 25,-2 30.53515,-11.703125 30.53515,-11.703125 0,0 -11.83203,7.800781 -42.66406,1.96875 -30.83594,-5.835938 -65.83594,-16 -94,-12.667969 -28.16797,3.332031 -73.5,9.332031 -91.835939,59.33203 0,0 23.249999,-36.664061 60.667969,-39.664061 0,0 -37.41797,20.332031 -41.83203,60.000001 -3.57422,32.07812 3.5,52.16406 3.5,52.16406 0,0 -10.6836,-63.83203 52.55078,-84.61719 0,0 -17.55078,12.45313 -29.55078,35.11719 -12,22.66797 -15.63281,43.87891 -12.46875,66.37891 0,0 4.66406,-39.03125 19.96875,-63.04297 C 170.5,116.33203 197,107.33203 197,107.33203 c 0,0 -23.41406,22 -34.75,44 -11.33203,22 -31.75,75 -2.58203,122.33594 0,0 -6.16797,0.33203 -16.16797,10.16406 -9.83594,9.67188 -12.16797,17.33594 -12.16797,17.33594"
       style="fill:#0f0c0c;fill-opacity:1;fill-rule:nonzero;stroke:none" />
    <path
       id="path52"
       d="m 142.33203,293.66797 c 0,0 8.83594,-12.5 25.5,-14.83594 16.66797,-2.33203 26.83594,4.33594 27.5,8.66797 0.66797,4.33203 -3,7.33203 -3.83203,13.66797 -0.83203,6.33203 -1,25.33203 2.83203,45.66406 0,0 -11,-37.16406 -25.45703,-46.83203 -13.52734,-9.04297 -26.54297,-6.33203 -26.54297,-6.33203"
       style="fill:#0f0c0c;fill-opacity:1;fill-rule:nonzero;stroke:none" />
    <path
       id="path54"
       d="m 168.16797,313.33203 -2.66797,19.5 -25.83203,-21.66797 -10.33203,19 c 0,0 0.5,-17.5 6.83203,-23.83203 6.33203,-6.33203 18.16797,-6.83203 32,7"
       style="fill:#0f0c0c;fill-opacity:1;fill-rule:nonzero;stroke:none" />
    <path
       id="path56"
       d="m 174.16797,321.66797 -1.22266,27.73437 -30.60937,-25.07031 -13,21.33594 1.83203,36 L 154.83594,353 185.5,412.5 l 9.66797,-43.70703 c 0,0 -6,-27.29297 -21,-47.125"
       style="fill:#0f0c0c;fill-opacity:1;fill-rule:nonzero;stroke:none" />
    <path
       id="path58"
       d="m 197.66797,374.83203 -11.5,53.30078 -32.13281,-62 -21.36719,25.69922 c 0,0 1.66406,31.50391 16.08203,48.16797 14.41797,16.66406 26.58203,20.5 32.75,20.16406 6.16797,-0.33203 20.92188,-8.5 23.25781,-22 C 207.08984,424.66406 203,396 197.66797,374.83203"
       style="fill:#0f0c0c;fill-opacity:1;fill-rule:nonzero;stroke:none" />
    <path
       id="path60"
       d="m 199,457.5 c 0,0 -5.51172,8.27344 -17.66797,8.83203 C 166.83203,467 159.57031,462.25781 147,450.16406 131.66797,435.41406 129.33203,404.5 129.33203,404.5 c 0,0 -3.5,-3.5 -3.83203,0 -0.33203,3.5 1.72656,15.80469 2.87109,21.22656 C 130.125,434 144.33203,462.33594 146.16797,472 c 0,0 1.70703,12.75 -0.66797,24.75 -2.375,12 -8.625,18.5 -8.625,24.375 0,5.875 3.75,12 5.25,16.875 1.5,4.875 3.375,17.75 3.375,17.75 0,0 6.875,-7.125 9.5,-7.375 2.625,-0.25 5.375,3.5 9,2.75 3.625,-0.75 7.5,-5.125 9.125,-5 1.625,0.125 3.375,2.625 4.75,2.75 1.375,0.125 3.75,-1 3.75,-1 0,0 -6.625,-7.625 -6.875,-8.375 -0.25,-0.75 -5.125,-30.75 -4.25,-35.125 C 171.375,500 188,471.5 188,471.5 c 0,0 2,-2.625 3.5,-3.5 1.5,-0.875 4.75,-2.375 5.75,-4 1,-1.625 1.75,-6.5 1.75,-6.5"
       style="fill:#0f0c0c;fill-opacity:1;fill-rule:nonzero;stroke:none" />
    <path
       id="path62"
       d="m 151.25,559.375 c 0,0 -3.66797,12.78906 -4.08203,19.53906 -0.55469,8.94141 0.95703,13.32422 1.91797,16.32422 0.35937,1.13281 -1.37891,1.55469 -1.66797,2.09375 0,0 0.875,5.5 -0.66797,5.81641 -1.43359,0.29297 -2.75,-5.27344 -2.75,-5.27344 0,0 -1.49219,-0.8125 -1.74219,-1.6875 -0.25,-0.875 -1.71484,-9.89844 -1.71484,-14.92188 0,-4.80859 1.70703,-16.14062 2.83203,-18.01562 1.125,-1.875 7.875,-3.875 7.875,-3.875"
       style="fill:#0f0c0c;fill-opacity:1;fill-rule:nonzero;stroke:none" />
    <path
       id="path64"
       d="m 158.41797,555.20703 c 1.86719,-0.30078 4.83203,0.91797 5.83203,4.16797 1,3.25 2.16797,12.75 2.54297,18.625 0.375,5.875 0.95703,16.26953 0.70703,17.625 -0.25,1.35547 -0.20703,3.20703 -2.125,3.625 -1.10156,0.23828 -1.83594,0.30469 -3.58203,0.41406 0,0 0.20703,7.46094 -1.96094,7.46094 -2.58203,0 -2.45703,-7.66797 -2.45703,-7.66797 -0.875,0.0469 -3.75,-0.33203 -3.75,-0.33203 0,0 -1.25,-0.125 -1.375,-1.625 -0.125,-1.5 -0.25,-12.75 0,-18.375 0.25,-5.625 1.875,-19.75 1.875,-19.75 0,0 0.41797,-3.54297 4.29297,-4.16797"
       style="fill:#0f0c0c;fill-opacity:1;fill-rule:nonzero;stroke:none" />
    <path
       id="path66"
       d="m 174.66797,554.16406 c 2.25,-0.45703 5.13281,0.16016 6.50781,2.03516 1.375,1.875 3.82422,7.92578 4.57422,16.05078 0.75,8.125 0.33594,22.70703 0.33594,22.70703 0,0 0.11328,2.25 -1.21094,2.66797 -0.65625,0.20703 -2.58203,0.20703 -3.53906,0.20703 0,0 -0.375,3.98438 -0.79297,5.32813 -0.41797,1.34375 -0.58203,2.00781 -1.83203,2.00781 -1.54297,0 -2.21094,-2.375 -2.46094,-3.75 -0.19922,-1.10156 -0.5,-3.58594 -0.5,-3.58594 -2,0.082 -3.125,-0.33203 -3.125,-0.33203 0,0 -0.75,-0.25 -0.75,-1.25 0,-1 -0.20703,-15.04297 -0.33203,-20.91797 -0.125,-5.875 -1.33203,-15.91797 -1.08203,-17.54297 0.25,-1.625 1.5625,-3.08594 4.20703,-3.625"
       style="fill:#0f0c0c;fill-opacity:1;fill-rule:nonzero;stroke:none" />
    <path
       id="path68"
       d="m 187.25,557.41797 c 0,0 -1.05078,-2.08594 1.375,-1.66797 1.76563,0.30469 5.66406,1.41406 7.875,3 1.63672,1.17578 5.125,3.625 6,7.75 0.875,4.125 1.625,10 1.75,15.625 0.125,5.625 0.22266,8.91406 0,10.625 -0.17578,1.35156 -0.625,2.375 -1.5,3 -0.875,0.625 -2.5,1 -2.5,1 0,0 0.79297,9.12891 -1.625,9.12891 -2.5,0 -2.5,-8.79688 -2.5,-8.79688 0,0 -2.75,-0.082 -3.25,-0.20703 -0.5,-0.125 -1.75,-0.75 -1.875,-2.875 -0.125,-2.125 0.5,-10.5 0,-17.625 -0.5,-7.125 -2.875,-17.08203 -3.75,-18.95703"
       style="fill:#0f0c0c;fill-opacity:1;fill-rule:nonzero;stroke:none" />
    <path
       id="path70"
       d="m 205.54297,544.53906 c 1.90625,-0.19922 3.80469,0.84766 3.89844,2.09375 0.10156,1.28125 0.10156,8.19922 0.10156,8.78125 0,0.58594 0,1.01953 -0.75,1.14453 -0.75,0.125 -1.625,0.14844 -1.625,0.14844 0,0 -0.54297,3.00391 -1.08203,3.04297 -0.54297,0.0391 -2.21094,-3.06641 -2.21094,-3.06641 l -2.03906,-0.0586 c 0,0 -0.66797,-0.0391 -0.75,-1.25 -0.0859,-1.21094 0.0391,-7.28906 0.25,-8.125 0.20703,-0.83594 1.03906,-2.375 4.20703,-2.71094"
       style="fill:#0f0c0c;fill-opacity:1;fill-rule:nonzero;stroke:none" />
    <path
       id="path72"
       d="m 215,541.83203 c 1.32031,-0.17578 4,1.58203 4.29297,5.45703 l 0.25,8.71094 c 0,0 0,1.28906 -0.46094,1.28906 H 218 c 0,0 -1.08203,2.25 -1.41797,2.25 -0.33203,0 -1.58203,-2.21094 -1.58203,-2.21094 l -2.04297,-0.0391 c 0,0 -0.74609,-0.0391 -0.78906,-1.20703 -0.043,-1.16797 -0.004,-11.56641 -0.004,-11.56641 0,0 0.33594,-2.34765 2.83594,-2.68359"
       style="fill:#0f0c0c;fill-opacity:1;fill-rule:nonzero;stroke:none" />
    <path
       id="path74"
       d="m 225.20703,543.875 c 1.07813,-0.14453 2.875,0.29297 3.125,1.625 0.25,1.33203 0.5,4.70703 0.41797,6.20703 -0.082,1.5 -0.16797,4.125 -0.33203,4.5 -0.16797,0.375 -1.42969,0.625 -1.42969,0.625 0,0 -1.40625,2.75 -1.78125,2.70703 -0.375,-0.0391 -1.375,-2.45703 -1.375,-2.45703 0,0 -1.28906,-0.25 -1.41406,-0.625 -0.125,-0.375 -0.33594,-9.16797 -0.21094,-10 0.125,-0.83203 0.79297,-2.28906 3,-2.58203"
       style="fill:#0f0c0c;fill-opacity:1;fill-rule:nonzero;stroke:none" />
    <path
       id="path76"
       d="m 231.58203,543.91406 c 1.16797,-0.33203 2.25,0.58594 2.54297,1.21094 0.29297,0.625 0.54297,3.20703 0.54297,4.28906 0,1.08594 -0.16797,1.9375 -0.46094,2.28125 -0.28906,0.34375 -0.53906,0.80469 -0.53906,0.80469 0,0 -0.5,4.58203 -0.71094,4.58203 -0.20703,0 -0.33203,-3.33203 -0.58203,-3.66797 -0.25,-0.33203 -1.41797,-0.73047 -1.625,-1.28125 -0.20703,-0.55078 -0.66797,-5.05078 -0.625,-5.84375 0.043,-0.78906 0.125,-1.99609 1.45703,-2.375"
       style="fill:#0f0c0c;fill-opacity:1;fill-rule:nonzero;stroke:none" />
    <path
       id="path78"
       d="m 221.33203,543.625 c 0,0 -2.66406,-5.21094 -5.78906,-5.29297 -3.125,-0.082 -5.16797,2.45703 -5.16797,2.45703 0,0 -3.16797,-2.32812 -5.25,-1.78906 -2.08203,0.53906 -5.25,3.44922 -6.125,4.85156 -0.875,1.39844 -1.375,3.10938 -1.75,4.39844 -0.375,1.28906 -0.41797,5.76953 -0.41797,5.76953 0,0 -4.16406,0.20703 -7.20703,-1.88672 -3.04297,-2.09375 -5.25,-4.71875 -5.25,-4.71875 0,0 3.875,-3.76953 4.625,-5.59375 0.75,-1.82031 2.95703,-9.15234 3.625,-13.44531 0.66797,-4.29297 0.95703,-7.875 0.375,-10.25 -0.58203,-2.375 -4.79297,-6.03906 -4.33203,-9 0.45703,-2.96094 5.375,-11.83594 7.33203,-15.16797 1.95703,-3.33203 6.58203,-10.29297 7.375,-13.375 0.79297,-3.08203 0.33203,-11.58203 0.58203,-12.375 0.25,-0.78906 3.25,-1.29297 5.91797,-6.79297 2.66797,-5.5 6.41797,-13.01562 7.75,-17.91406 2.33203,-8.58594 -0.70703,-32.75 -0.70703,-32.75 0,0 16.08203,28.25 20.33203,31.83594 4.25,3.58203 15.5,9.83203 17.83203,10.91406 2.33594,1.08594 5.5,5.41797 3.08594,9.91797 -2.41797,4.5 -15.41797,23.66797 -18.41797,26.91797 -3,3.25 -4.83203,4.83203 -8.83203,5.91406 -4,1.08594 -6.42578,0.66797 -9.21484,3.08594 -2.78516,2.41406 -6.03516,5.16406 -6.70313,7.25 -0.66797,2.08203 -2.16797,12.25 -1.41797,14.5 0.75,2.25 7,9.08203 9,11.5 2,2.41406 5.08594,7.08203 4.91797,7.66406 -0.16797,0.58594 -0.91797,1.16797 -2.66797,2 -1.75,0.83594 -3.5,1.375 -3.5,1.375"
       style="fill:#0f0c0c;fill-opacity:1;fill-rule:nonzero;stroke:none" />
    <path
       id="path80"
       d="m 237.5,337.75 c 0,0 -10.375,12.375 -15.25,21.75 -4.36719,8.39453 -9.05078,18.73047 -8.82422,28 0,0 -4.44531,-2.125 -8,-12.125 -3.55078,-10 -7.05078,-41.5 -7.05078,-48.875 V 309.125 L 219.25,299.5 228,299.80078 204.63672,337.375 Z m 0,0"
       style="fill:#0f0c0c;fill-opacity:1;fill-rule:nonzero;stroke:none" />
    <path
       id="path82"
       d="m 199,302.625 20.33203,-9.01562 18.31641,0.61718 L 214.97656,331.5 244.5,331.625 c 0,0 11,-10.625 18.625,-17.25 7.625,-6.625 18.125,-15.75 18.125,-15.75 L 241.125,281.25 266.5,266.75 c 0,0 -13.625,-1.625 -19,-1.5 -5.375,0.125 -21.5,1.375 -32.25,11.125 -10.75,9.75 -13.875,18.25 -16.25,26.25"
       style="fill:#0f0c0c;fill-opacity:1;fill-rule:nonzero;stroke:none" />
    <path
       id="path84"
       d="m 232.36328,256.58203 c 0,0 18.01953,-12.14844 25.36328,-7.04297 5.38282,3.73828 -15.35547,11.02344 -15.35547,11.02344 l 38.88282,3.30859 -25.84766,17.29688 32.77344,12.44141 c 0,0 14.73437,-8.27735 32.97656,-12.6836 0,0 0.74609,-2.5 2.11719,-5.0039 1.37109,-2.5 2.99219,-4.12891 2.99219,-4.12891 l -25.29297,-24.83203 c 0,0 4.41797,-0.75781 11.16797,-0.61719 3.58203,0.0781 10.45703,0.58203 10.45703,0.58203 L 313.75,233.69531 c 0,0 -25.55859,-4.33593 -44.67578,-1.67968 -19.12109,2.66015 -33.48828,8.93359 -36.71094,24.5664"
       style="fill:#0f0c0c;fill-opacity:1;fill-rule:nonzero;stroke:none" />
    <path
       id="path86"
       d="m 283.25,212.51172 c 0,0 18.56641,5.00781 26.97656,10.42187 C 323,231.15625 330,248 330,248 c 0,0 13.75,3.34766 21.375,8.59766 7.625,5.25 20.75,21.02734 20.75,21.02734 0,0 3.32422,-25.09375 -20.875,-50.625 -13.625,-14.375 -29.87891,-21.51562 -36.12891,-21.39844 0,0 -15.62109,-4.08984 -31.87109,6.91016"
       style="fill:#0f0c0c;fill-opacity:1;fill-rule:nonzero;stroke:none" />
    <path
       id="path88"
       d="m 342.625,200.75 c 0,0 10.875,2.875 25.625,32.75 12.40625,25.12891 9,68.25 9,68.25 0,0 9.5,-17.125 14.625,-28.375 C 397,262.125 399.5,258.5 400.125,251.25 400.75,244 395,232.5 395,232.5 c 0,0 2.625,16.875 -5.43359,15.73047 C 384.97266,247.57422 383,232.875 376,220.875 c -4.73047,-8.11328 -15,-25.75 -33.375,-20.125"
       style="fill:#0f0c0c;fill-opacity:1;fill-rule:nonzero;stroke:none" />
    <path
       id="path90"
       d="m 383.25,304.75 c 0,0 7.5,0.0977 11.625,0.34766 4.125,0.25 11.25,1.02734 11.25,1.02734 0,0 2.75,-7.5 4.5,-10.25 1.75,-2.75 6,-8 6,-8 0,0 -8.50391,-4.39453 -9.125,-10.25 -1.25,-11.75 11.25,-25.125 11.25,-25.125 0,0 -13.375,5.75 -16.58594,12.74219 C 399.46094,271.13281 390.125,290.75 383.25,304.75"
       style="fill:#0f0c0c;fill-opacity:1;fill-rule:nonzero;stroke:none" />
    <path
       id="path92"
       d="m 394.16797,309.66797 c -4.32813,0.32031 -12.33203,1.16797 -15.66797,2.16797 -3.33203,1 -5.85937,2.91406 -6.22266,3.83203 -0.35937,0.91797 -0.27734,2.25 0.8086,2.33203 1.08203,0.0859 12.33203,-3 21.08203,-3.25 8.75,-0.25 14,0.082 16.33203,0.25 2.33594,0.16797 5.33594,1.16797 5.91797,0.91797 0.58203,-0.25 0.5,-1.33203 -0.91797,-2.75 -1.41406,-1.41797 -3.49609,-3.08203 -6.33203,-3.5 -2.83203,-0.41797 -12.3125,-0.19922 -15,0"
       style="fill:#0f0c0c;fill-opacity:1;fill-rule:nonzero;stroke:none" />
    <path
       id="path94"
       d="m 420,311.41797 c -0.21875,-2.07422 2.79688,-11.17969 5.83594,-17.33203 6.74609,-13.6836 18.33203,-18.41797 18.33203,-18.41797 0,0 -12.54688,9.84375 -16.5,22.75 -4.41797,14.41797 -0.66797,23.75 -0.66797,23.75 0,0 -3.25,-3.41797 -4.58203,-5.33203 C 421.08594,314.91797 420.16797,313 420,311.41797"
       style="fill:#0f0c0c;fill-opacity:1;fill-rule:nonzero;stroke:none" />
    <path
       id="path96"
       d="m 417.33594,319.58203 c 0,0 7.16406,7.75 15.83203,10.75 8.66797,3 14.25,4.5 16.41797,5.08594 2.16406,0.58203 3.58203,1.91406 3.33203,3 -0.25,1.08203 -1.5,2.33203 -4.91797,2.25 -3.41406,-0.0859 -12,-2.33594 -16.33203,-4.91797 -4.33203,-2.58203 -11.11328,-8.50391 -14.33203,-16.16797"
       style="fill:#0f0c0c;fill-opacity:1;fill-rule:nonzero;stroke:none" />
    <path
       id="path98"
       d="m 450.125,278.875 c 0,0 0.8125,6.4375 1.3125,9.8125 0.5,3.375 1.875,15.9375 2.0625,19.875 0.1875,3.9375 0.45313,7.9375 -0.55469,11.625 -1.00781,3.6875 -2.32031,6.3125 -2.82031,7 -0.5,0.6875 -0.75,1.375 -2.8125,1.0625 -2.0625,-0.3125 -7.78516,-1.6875 -12.17187,-4.5625 -4.39063,-2.875 -5.70313,-5.1875 -6.51563,-6.8125 -0.8125,-1.625 -1.0625,-3.0625 -1,-6.0625 0.0625,-3 0.90625,-10.0625 4.45313,-16.8125 3.54687,-6.75 7.35937,-11.6875 18.04687,-15.125"
       style="fill:#0f0c0c;fill-opacity:1;fill-rule:nonzero;stroke:none" />
    <path
       id="path100"
       d="m 434.1875,341.3125 c 0,0 0.75,2.8125 1.625,4.3125 0.875,1.5 8.0625,11.5 16.1875,14.9375 0,0 -11.4375,0.5 -15.125,2 -3.6875,1.5 -10.625,7.5625 -13.5625,13.125 -2.9375,5.5625 -9.625,19.0625 -12.75,48.8125 0,0 -3,-33.3125 -3.5,-40.6875 -0.5,-7.375 -1.3125,-14.75 -1.5,-15.375 -0.1875,-0.625 -1.125,-2.5625 -3.3125,-3.0625 0,0 1.3125,16.0625 1.875,31.375 0.5625,15.3125 0.625,45.5625 0.625,45.5625 0,0 -4.8125,-39.4375 -5.6875,-54.8125 -0.875,-15.375 -1.1875,-21.625 -1.1875,-21.625 0,0 -2.5,1.5625 -2.5625,3.5625 -0.0625,2 0.5,13.6875 0.6875,20.5625 0.1875,6.875 0.75,34.5 0.75,34.5 0,0 -5.25,-25.375 -13.75,-40.375 -8.5,-15 -14,-19.625 -20.625,-21.8125 -6.625,-2.1875 -13.875,-1.5 -13.875,-1.5 0,0 8.57031,-5.71875 12.63281,-10.46875 4.0625,-4.75 5.05469,-9.03125 5.05469,-9.03125 0,0 4.3125,1.375 9.75,5.75 5.4375,4.375 11.625,11.9375 11.625,11.9375 0,0 1,-0.36328 2.1875,-0.67578 1.1875,-0.3125 2.3125,-0.38672 2.3125,-0.38672 0,0 -5.17969,-4.5 -7.375,-9.625 -2.0625,-4.8125 -2.375,-12.0625 -2.375,-12.0625 0,0 7.125,11.42578 14.5,11.17578 0,0 -0.0625,-6.48828 -0.0625,-12.55078 0,-6.0625 0.11328,-16.875 0.11328,-16.875 0,0 1.82422,10.6875 2.26172,16.3125 0.4375,5.625 1.27344,13.21484 1.27344,13.21484 0,0 3.58594,0.20313 7.23828,-2.875 C 413.19922,339.96484 415,333.3125 415,333.3125 c 0,0 1.11719,9.04688 -0.6875,14.5625 -2.0625,6.3125 -6.875,9.9375 -6.875,9.9375 0,0 1.875,0.27344 3.125,0.58594 1.25,0.3125 2.375,0.91406 2.375,0.91406 0,0 4,-6 9.125,-10.1875 5.125,-4.1875 12.125,-7.8125 12.125,-7.8125"
       style="fill:#0f0c0c;fill-opacity:1;fill-rule:nonzero;stroke:none" />
    <path
       id="path102"
       d="m 369.9375,321 c 0,0 -0.875,10.625 -7.5625,18.375 -6.6875,7.75 -14.27344,11.27344 -16.58594,11.71094 C 343.47656,351.52344 341.75,351 341.5,350.125 c -0.25,-0.875 -0.125,-2.5625 1.5625,-3.5625 1.6875,-1 8.75,-5.4375 11.625,-7.875 2.875,-2.4375 11.4375,-7.9375 15.25,-17.6875"
       style="fill:#0f0c0c;fill-opacity:1;fill-rule:nonzero;stroke:none" />
    <path
       id="path104"
       d="m 310.5625,250.70703 c 0,0 14.9375,1.66797 20.0625,2.79297 5.125,1.125 12.25,3.3125 15.8125,5 3.5625,1.6875 8,5 10.5625,8.75 2.5625,3.75 12.79688,22.125 15.08594,31.4375 0,0 -10.52344,-11.75 -16.96094,-17.4375 -6.4375,-5.6875 -13.1875,-9.9375 -15.6875,-11.0625 -2.5,-1.125 -4.5,-1.3125 -5.625,-1.3125 -1.125,0 -2.8125,0.5625 -3.75,1.25 0,0 -5.625,-6.3125 -9.4375,-10.0625 -3.8125,-3.75 -10.0625,-9.35547 -10.0625,-9.35547"
       style="fill:#0f0c0c;fill-opacity:1;fill-rule:nonzero;stroke:none" />
    <path
       id="path106"
       d="m 371.6875,313.0625 c 0,0 -4.8125,-12.5625 -11.5625,-20.4375 -6.75,-7.875 -12.98828,-14.9375 -26.8125,-16.95703 -4.5625,-0.66797 -5.375,1.14453 -5.6875,1.95703 -0.3125,0.8125 -2.0625,8.99219 -3.125,21.12109 -1.0625,12.12891 -0.53125,22.36719 -0.11328,27.99219 0.58203,7.83203 4.17578,10.76172 4.17578,10.76172 0,0 -1.1875,-5.9375 -1.3125,-14 -0.125,-8.0625 1.4375,-26.8125 2.0625,-31.8125 0.625,-5 1.625,-10 2.25,-10.9375 0.625,-0.9375 2.625,-0.6875 4.25,-0.625 1.625,0.0625 4.8125,0.4375 8,1.875 3.1875,1.4375 7.125,4.3125 10,7.3125 2.875,3 6.1875,7 8.8125,11.4375 2.625,4.4375 5.875,12.1875 5.875,12.1875 z m 0,0"
       style="fill:#0f0c0c;fill-opacity:1;fill-rule:nonzero;stroke:none" />
    <path
       id="path108"
       d="m 337,284.3125 c 0,0 8.5625,1.5 15.6875,8.5 7.125,7 11.625,13.8125 13.0625,17.4375 1.4375,3.625 2.0625,5.125 1.125,8.125 -0.9375,3 -5.25,8.875 -5.25,8.875 0,0 1.375,-5.9375 0.8125,-10.375 -0.5625,-4.4375 -2.25,-9.53516 -5.25,-14.34766 0,0 -6.05859,-10.62109 -20.1875,-18.21484"
       style="fill:#0f0c0c;fill-opacity:1;fill-rule:nonzero;stroke:none" />
    <path
       id="path110"
       d="m 333.33594,287.64063 c 0,0 -1.64844,7.0664 -2.14844,13.52734 -0.5,6.45703 -1.5625,20.33203 -0.625,25.33203 0.9375,5 3.6875,10.625 4.625,11.9375 0.9375,1.3125 1.3125,2.75 4.625,1.75 3.3125,-1 8.75,-4 12.625,-7.1875 3.875,-3.1875 7.1875,-7.625 7.875,-8.9375 0.6875,-1.3125 0.875,-3.1875 0.5,-5.5 -0.375,-2.3125 -3.25,-11.60547 -7.5625,-17.39453 -4.3125,-5.79297 -8.85156,-11.27734 -19.91406,-13.52734"
       style="fill:#0f0c0c;fill-opacity:1;fill-rule:nonzero;stroke:none" />
    <path
       id="path112"
       d="M 423.86719,442.3125 C 423.16797,448.83203 420,459.375 414.375,457.875 c 0,0 -0.22656,-3.5 -0.47656,-6.5 -0.25,-3 -1.52344,-10.875 -1.52344,-10.875 0,0 3.375,9.375 4.75,9.125 1.375,-0.25 2.875,-4.66406 3,-9.875 0.14453,-6.08203 0,-14.625 0,-16.625 0,-2 0.45703,-8.04297 5,-10 8.09375,-3.49219 10.29688,5.875 10.29688,5.875 0,0 -5.20704,-1.62109 -8.6836,0.69922 -2.82031,1.88281 -2.4375,5.11328 -2.4375,5.11328 0,0 0.45703,9.19531 -0.43359,17.5 M 426,438.75 c 0,0 4.96875,-4.56641 10.5,-9.25 4.91797,-4.16406 10,-9 10,-9 0,0 -3.06641,-5.88672 -2.625,-10.75 0.875,-9.625 6.875,-11.125 10,-15.5 0,0 3.09375,-4.23047 3.25,-10.375 0.125,-4.875 -3.37109,-5.91797 -5.125,-5.91797 -3.25,0 -7.375,3.04297 -7.375,3.04297 0,0 3.55078,-10.47656 10.25,-11 6.375,-0.5 7.625,9.125 7.5,13.25 0,0 -0.375,7.375 -3.75,11.75 -3.375,4.375 -8.75,7.5 -9.25,11.125 -0.5,3.625 1.22266,5.875 3.84766,5.5 0,0 5.40234,-0.5 10.02734,-13.375 4.625,-12.875 2.25,-28 -2.375,-42.75 -4.625,-14.75 -6.75,-21.75 -6.75,-21.75 0,0 2.5,-14.875 1.875,-27 -0.625,-12.125 -1.98047,-26.95312 -5.66406,-31.83203 C 447.25,270.83203 444.75,272.125 442.25,273.375 c 0,0 -11.16406,6.54297 -16.41406,14.375 -5.25,7.83203 -9.41797,22.25 -9.41797,22.25 0,0 -1.25,-0.33203 -2.75,-0.75 -1.5,-0.41797 -3.16797,-0.625 -3.16797,-0.625 0,0 6,-14.625 12.25,-23 6.25,-8.375 16.125,-14.25 19.625,-15.625 3.5,-1.375 7,-3.125 9.125,0.875 2.125,4 5.25,12.75 6.5,22.125 1.25,9.375 1.375,23.5 0,36.25 0,0 8.75,11.5 12.875,16.875 4.125,5.375 14.375,17.125 14.375,17.125 l -11.125,6.5 15,19.375 -19.375,11.125 6.875,32 -23.75,-7.375 -8.375,26.75 -9.125,-10 c 0,0 -2.65234,11.27734 -5.05078,20.25 -2.41406,9.02344 -4.19141,17.53125 -7.35547,21.00391 -2.50391,2.74609 -4.44141,3.66015 -7.80078,4.24609 -7.55859,1.31641 -18.84375,0.33594 -26.17969,-0.53906 -1.7539,-0.20703 -5.35547,-1.80078 -7.23047,-4.92578 C 379.88281,478.53516 364.75,454.375 358.25,442.75 l -7.375,12.125 -6.375,-17 -18.625,15.5 0.75,-25.875 -19.5,-1.25 L 314,396 298.125,389.75 312.75,372.125 298.125,371.75 322,341.5 c 0,0 2.5,-1.875 6.5,1.125 4,3 2.375,7.25 1.375,9.5 -1,2.25 -7.5,19.5 -7.875,32.25 -0.375,12.75 2.625,28.125 11.625,35.25 9,7.125 21.25,10.75 28.25,11.375 l 26.77344,46.375 c 0,0 2.26562,4.26172 8.25,5.51172 4.83594,1.01172 12.89062,0.91406 15.47656,0.67578 3.00391,-0.27734 7.03906,-2.42578 8.55078,-5.36328 1.49219,-2.89844 2.17188,-7.19922 2.42188,-9.82422 C 423.59766,465.75 426,438.75 426,438.75"
       style="fill:#0f0c0c;fill-opacity:1;fill-rule:nonzero;stroke:none" />
    <path
       id="path114"
       d="m 421.3125,402.5625 c 0,0 3.75,0.1875 5.375,0.125 1.625,-0.0625 3.0625,-0.5625 3.875,-1.25 0.8125,-0.6875 1.625,-2.5625 1.9375,-4.5625 0.3125,-2 0.375,-5.0625 0.375,-5.0625 l -12.4375,9.25 -1.0625,3.5625 z m -7.75,13.5625 4.9375,-16.5625 c 0,0 5.3125,-3.4375 9.75,-6.75 C 432.6875,389.5 439.8125,383 439.8125,383 c 0,0 -0.3125,1.9375 -1,3.125 -0.6875,1.1875 -3.6875,5.375 -3.6875,5.375 0,0 0.4375,7.1875 0.4375,9.25 0,2.0625 -2.0625,5.25 -4.0625,5.875 -2,0.625 -5.8125,0 -9.125,-1.5625 0,0 -2.4375,3.125 -3.75,4.8125 -1.3125,1.6875 -5.0625,6.25 -5.0625,6.25"
       style="fill:#0f0c0c;fill-opacity:1;fill-rule:nonzero;stroke:none" />
    <path
       id="path116"
       d="M 380.75,406.5 380,403.1875 c 0,0 -4.125,-3.375 -6.4375,-4.96875 -2.3125,-1.59375 -6.5,-4.84375 -6.5,-4.84375 0,0 0.375,5.1875 0.625,6.1875 0.25,1 1.08594,3.21094 2.52734,4.02734 1.4336,0.8086 4.28516,1.16016 5.78516,1.03516 1.5,-0.125 2.875,-0.375 2.875,-0.375 z m 1.125,5.625 c -1.1875,-1.5625 -3.75,-5.125 -3.75,-5.125 0,0 -3.01172,1 -5.69922,1.5 -2.6875,0.5 -5.1875,-1.00781 -6.15234,-2.27344 -1.57422,-2.07812 -1.79688,-4.36328 -1.86328,-7.17578 -0.0586,-2.8125 0.52734,-5.86328 0.52734,-5.86328 0,0 -2.9375,-4.125 -3.4375,-5.0625 -0.5,-0.9375 -1.5,-3.5 -1.5,-3.5 0,0 8.125,6.6875 12.375,9.8125 4.25,3.125 9.3125,6.875 9.3125,6.875 0,0 0.9375,4.5 1.875,7.6875 0.9375,3.1875 3.0625,9.0625 3.0625,9.0625 0,0 -3.5625,-4.375 -4.75,-5.9375"
       style="fill:#0f0c0c;fill-opacity:1;fill-rule:nonzero;stroke:none" />
    <path
       id="path118"
       d="m 358.5,381.375 c 0,0 -6.51562,-11.28516 -15.25,-10.6875 -9.41797,0.64453 -9.00391,10.0625 -9,12.3125 0,1.625 1.625,10.5625 7.5625,15.21875 5.9375,4.65625 10.875,5.71875 10.6875,10.71875 -0.1875,5 -8.25,4 -12.6875,0.5625 0,0 0.16016,14.82031 12,13.1875 8.60547,-1.1875 8.31641,-9.625 8.13672,-12.9375 -0.33203,-6.25 -6.82422,-9.375 -11.07422,-12.25 -4.25,-2.875 -8.5,-7.9375 -7.3125,-13.1875 1.1875,-5.25 6.01953,-8.48047 16.9375,-2.9375"
       style="fill:#0f0c0c;fill-opacity:1;fill-rule:nonzero;stroke:none" />
    <path
       id="path120"
       d="m 363.84766,422.6875 c 0,0 -0.59766,-10.35156 9.46484,-10.35156 9.26953,0 11.51953,7.24609 11.375,10.35156 0,0 -0.125,16.25 0,18.0625 0.125,1.8125 0.89453,8.83203 6.73047,9.75 4.41016,0.69531 6.26953,-10.125 6.26953,-10.125 0,0 0.625,5.8125 1.0625,9.5 0.4375,3.6875 0.5,7.75 0.5,7.75 0,0 -8.66797,1.04297 -13.91797,-3.70703 -5.25,-4.75 -5.95703,-8.98047 -6.14453,-15.10547 -0.1875,-6.125 0.25,-11.55078 0.10156,-13.74219 C 379,420.8125 372.16797,414.75 363.84766,422.6875"
       style="fill:#0f0c0c;fill-opacity:1;fill-rule:nonzero;stroke:none" />
    <path
       id="path122"
       d="m 407,464.82422 c 3.44922,-0.0664 6.26563,-1.10547 7.21484,-1.57422 1.05469,-0.52344 1.67969,-0.95703 2.17188,-1.71094 0.34375,-0.53125 0.86328,-0.68359 1.3125,-0.40234 0.44531,0.28125 1.86328,1.23828 1.86328,5.55078 0,4.37891 -1.4375,9.3125 -3.3125,10.9375 -1.875,1.625 -3.86328,2.42578 -7.80078,2.42578 -3.9375,0 -7.34766,-0.65234 -9.03906,-2.08594 -1.6836,-1.4414 -3.09766,-4.46484 -3.59766,-7.02734 -0.5,-2.5625 -0.5625,-5.75 -0.3125,-7.375 0.25,-1.625 0.875,-2.01172 1.5,-1.57812 0.625,0.4414 1.3125,1.68359 3.19922,2.1914 1.98047,0.53125 3.55078,0.71094 6.80078,0.64844"
       style="fill:#0f0c0c;fill-opacity:1;fill-rule:nonzero;stroke:none" />
    <path
       id="path124"
       d="m 428.96484,479.77734 c 0,0 3.41016,14.53516 4.78516,19.53516 1.375,5 3.125,10.5625 4.625,12.75 1.5,2.1875 4.1875,2.875 3.625,6.8125 -0.5625,3.9375 -3.8125,12.9375 -4.9375,15.5625 -1.125,2.625 -4.0625,10.625 -6.625,10.5625 -2.5625,-0.0625 -9.75,-2.625 -16.875,-7.75 -7.125,-5.125 -11.8125,-10.125 -12.25,-12.1875 -0.4375,-2.0625 -0.875,-11.9375 -1.0625,-17.375 -0.1875,-5.4375 -1.125,-16.8125 -1.125,-16.8125 0,0 9.75,0.875 13.3125,0.75 3.5625,-0.125 8,-0.0625 10.75,-2.1875 2.75,-2.125 3.94922,-4.05078 4.63672,-5.86328 0.6875,-1.8125 1.14062,-3.79688 1.14062,-3.79688"
       style="fill:#0f0c0c;fill-opacity:1;fill-rule:nonzero;stroke:none" />
    <path
       id="path126"
       d="m 441.75,537.1875 c 0,0 0.5625,7.375 1.5625,13.25 1,5.875 2.0625,9.875 3.1875,12.75 1.125,2.875 4.0625,9.125 4.0625,9.125 0,0 -5.125,0 -7.6875,0.3125 -2.5625,0.3125 -7.6875,1.5 -10.9375,3.25 -3.25,1.75 -6.5,4.6875 -8.5625,9.6875 -2.0625,5 -2.625,8.625 -3.125,12.75 -0.5,4.125 -0.75,11.75 -0.75,11.75 0,0 -2.9375,-5.75 -5.0625,-10.5 -2.125,-4.75 -5,-10.5 -5,-10.5 0,0 0.4375,-6 0.375,-8.1875 -0.0625,-2.1875 -0.1875,-3.6875 -0.875,-5.0625 -0.6875,-1.375 -1.8125,-2.125 -1.9375,-0.375 -0.125,1.75 0,5.125 0,5.125 0,0 -0.0625,2 -1.875,1.9375 -1.8125,-0.0625 -2.375,-1.875 -2.375,-2.9375 0,-1.0625 -0.5,-10.3125 -0.4375,-13.375 0.0625,-3.0625 0.1875,-6.1875 1.1875,-7.25 1,-1.0625 1.8125,-1.375 2.875,-1.4375 1.0625,-0.0625 2.375,0.625 2.8125,1.9375 0.4375,1.3125 0.8125,4.5 0.8125,6.5625 0,2.0625 0.3125,4.6875 0.75,5.8125 0.4375,1.125 1.375,2.375 2.6875,2.3125 1.3125,-0.0625 2.25,-1.375 2.4375,-2.5625 0.1875,-1.1875 -0.8125,-8.5 -1.1875,-10.6875 -0.375,-2.1875 -1.125,-6.3125 -4.5625,-6.5 -3.4375,-0.1875 -4.5625,1.75 -5.0625,1.5625 -0.5,-0.1875 -1.1875,-5.375 -1.6875,-8.75 -0.5,-3.375 -1.06641,-8.8125 -1.06641,-8.8125 0,0 9.01954,5.41797 13.81641,7.375 5.07031,2.07031 11.70703,5.58203 16.78516,5 3.33984,-0.38281 7.02734,-5.375 8.83984,-13.5625"
       style="fill:#0f0c0c;fill-opacity:1;fill-rule:nonzero;stroke:none" />
    <path
       id="path128"
       d="m 329.77734,471.40234 c 0,0 -6.15234,-9.40234 -9.52734,-17.08984 -3.375,-7.6875 -8.66797,-17.26562 -9.375,-19 -1.25,-3.0625 -3.375,-1.8125 -4.875,-3.5 -1.5,-1.6875 -3.5,-8.75 -4.25,-11.375 -0.75,-2.625 -1.6875,-8 -8.125,-12.1875 -6.4375,-4.1875 -22.125,-7.4375 -39.5,-6.875 -17.375,0.5625 -22.8125,2.8125 -25.125,4.4375 -2.3125,1.625 -3,5.9375 -2,7.9375 1,2 8.625,13 11.875,17.125 3.25,4.125 6.6875,9.125 11,11.75 4.3125,2.625 17.3125,9.1875 22.625,12.25 5.3125,3.0625 11.625,9.25 20.625,23.625 0,0 1.875,-7.6875 3.3125,-16.25 1.4375,-8.5625 2.8125,-14.625 2.8125,-14.625 0,0 7.9375,6.05078 13.625,10.55078 5.6875,4.5 16.90234,13.22656 16.90234,13.22656"
       style="fill:#0f0c0c;fill-opacity:1;fill-rule:nonzero;stroke:none" />
    <path
       id="path130"
       d="m 304.1875,457.6875 36.25,26.8125 c 0,0 1.75,1.5 2.5625,2.3125 0.8125,0.8125 16.5,16.625 17.4375,17.875 0.9375,1.25 2.375,2.5 2.5625,5.6875 0.1875,3.1875 0.125,6.9375 -0.375,8.6875 -0.5,1.75 -1.4375,4.9375 -4.4375,5.4375 -3,0.5 -19.125,1.3125 -30,-2.375 C 317.3125,518.4375 310.25,513.75 307,505.9375 c -3.25,-7.8125 -8.875,-21.25 -8.875,-21.25 0,0 2.03906,-8.52344 3.22266,-14.07422 1.1914,-5.55078 2.83984,-12.92578 2.83984,-12.92578"
       style="fill:#0f0c0c;fill-opacity:1;fill-rule:nonzero;stroke:none" />
    <path
       id="path132"
       d="m 308.26953,516.35937 c 0,0 6.60547,5.89844 11.60547,8.58204 5,2.68359 12.125,7.12109 20.125,7.49609 8,0.375 15.9375,-0.5 19.25,-2.375 3.3125,-1.875 4.125,-3.36328 4.625,-5.12109 0.5,-1.75391 0.625,-3.87891 2.4375,-3.81641 1.8125,0.0625 2.3125,1.46094 2.3125,2.98047 0,1.51953 -1.125,9.20703 -2.25,11.70703 -1.125,2.5 -2.375,4.3125 -6.8125,5.5 -4.4375,1.1875 -10.4375,3 -12.875,4.3125 -2.4375,1.3125 -7.9375,7.1875 -10.5,8.8125 -2.5625,1.625 -5.25,3.0625 -9.75,2.8125 -4.5,-0.25 -11.0625,-1.9375 -14.5,-2.5625 -3.4375,-0.625 -7.3125,-0.0625 -11.3125,-0.8125 -4,-0.75 -9.125,-2.875 -12.8125,-8.875 -3.6875,-6 -4.75,-11.1875 -5.5625,-13.5625 -0.8125,-2.375 -2.8125,-4.8125 -2.875,-5.6875 -0.0625,-0.875 0.5,-3.25 2.8125,-3.125 2.3125,0.125 3.5,3.25 5.8125,1.5625 2.3125,-1.6875 0.125,-3.3125 0.5,-5.125 0.375,-1.8125 2.3125,-2.125 3.3125,-1.75 1,0.375 1.875,2.4375 3.4375,2.8125 1.5625,0.375 6.4375,0.875 8.125,0.875 1.6875,0 2.80078,0.26172 3.17578,-0.61328 0.375,-0.875 0.4961,-1.92969 0.44922,-2.88672 -0.0625,-1.30078 0.70703,-1.62891 1.26953,-1.14063"
       style="fill:#0f0c0c;fill-opacity:1;fill-rule:nonzero;stroke:none" />
    <path
       id="path134"
       d="m 249.58203,336.66797 c 0,0 -14.83203,13.41406 -22.25,29.83203 -7.41406,16.41797 -7.75,22.58594 -5,37.5 0,0 12.33594,-7.08203 25.16797,-8.91406 12.83203,-1.83594 28.91797,-3.25 54.25,7 l -10.58203,-12.16797 7.91406,-9.76172 c 0,0 -10.83203,-10.32031 -32.75,-10.82031 -10.84375,-0.25 -28.83203,6.5 -28.83203,6.5 0,0 -0.83203,-4.91797 2.16797,-14.5 3,-9.58594 9.91406,-24.66797 9.91406,-24.66797"
       style="fill:#0f0c0c;fill-opacity:1;fill-rule:nonzero;stroke:none" />
    <path
       id="path136"
       d="m 243.75,366.16797 c 0,0 10.16797,-5.16797 24,-5.16797 16.5,0 26.66797,5.66797 26.66797,5.66797 L 317.5,337.83594 l -42,3.83203 8.33203,-35.15625 c 0,0 -19.25,15.48828 -26.5,25.73828 -7.25,10.25 -13.58203,33.91797 -13.58203,33.91797"
       style="fill:#0f0c0c;fill-opacity:1;fill-rule:nonzero;stroke:none" />
    <path
       id="path138"
       d="m 284.25,335.16797 c 0,0 3.75,-12.75 5.16797,-20 1.41406,-7.25 2.33203,-14 2.33203,-14 0,0 5.66797,-4.91797 12.58203,-8.25 6.91797,-3.33594 17.41797,-6.25 17.41797,-6.25 0,0 -2.41406,4.33203 -3.41406,9.25 -1,4.91406 -2.08594,12.08203 -1.75,36.33203 z m 0,0"
       style="fill:#0f0c0c;fill-opacity:1;fill-rule:nonzero;stroke:none" />
    <path
       id="path140"
       d="m 429.02734,587.18359 c 1.67188,0 3.73047,0.7461 4.73047,5.8125 1,5.07032 2.04688,12.73047 2.00391,23.13282 0,0 0.26953,2.86718 -1.19922,2.86718 h -2.80469 c 0,0 -0.66406,6.9375 -1.66406,6.9375 -1.06641,0 -1.96875,-6.9375 -1.96875,-6.9375 0,0 -2.23437,-0.19922 -2.76953,-0.13281 -0.53125,0.0664 -1.33203,-0.26562 -1.26563,-2.66797 0.0664,-2.39844 0.53516,-10.13672 0.86719,-14.60547 0.33594,-4.46484 0.0664,-14.40625 4.07031,-14.40625"
       style="fill:#0f0c0c;fill-opacity:1;fill-rule:nonzero;stroke:none" />
    <path
       id="path142"
       d="m 441.76563,581.11719 c 1.85156,-0.64063 5.39843,-0.66797 6.66796,1.46875 1.26563,2.13281 3.66797,6.13281 4.60157,14.0039 0.93359,7.8711 0.86718,15.00391 0.53515,17.73828 -0.33593,2.73438 -0.53515,4.20313 -1.40234,4.33594 -0.86719,0.13281 -3.81641,0.30078 -3.81641,0.30078 0,0 -0.91797,5.30078 -2.71875,5.30078 -0.73437,0 -0.61718,-5.65234 -0.61718,-5.65234 l -1.98438,-0.14844 c 0,0 -1.40234,-0.0351 -1.26562,-1.83593 0.13281,-1.80079 0.71484,-12.23829 -0.0117,-16.57032 -0.72266,-4.33593 -3.45703,-11.875 -3.72266,-12.875 -0.26953,-1 -0.9375,-2.79687 0,-3.73047 0.92969,-0.9375 1.79688,-1.67187 3.73438,-2.33593"
       style="fill:#0f0c0c;fill-opacity:1;fill-rule:nonzero;stroke:none" />
    <path
       id="path144"
       d="m 456.63672,578.91406 c 1.41797,-0.1289 3.73437,-0.0625 4.9375,1.20313 1.19922,1.26562 4.19922,6.07031 4.73437,11.40234 0.53125,5.33594 0.9336,22.42969 0.86329,23.49609 -0.0625,1.06641 -0.12891,1.98047 -0.86329,1.98047 -0.73437,0 -2.51953,0.10157 -2.51953,0.10157 0,0 -0.14843,6.16796 -1.16797,6.5039 -1.25,0.40625 -1.3164,-6.52344 -1.3164,-6.52344 l -1.39844,-0.28125 c 0,0 -1.07031,-0.0664 -1.20312,-1.60156 -0.13282,-1.53125 0.13281,-15.20312 -0.0664,-19.80469 -0.19922,-4.60546 -1.19922,-8.9375 -2.33203,-10.87109 -1.13672,-1.93359 -2.53516,-3.40234 -2.13672,-4.20312 0.40234,-0.80079 1.39844,-1.30079 2.46875,-1.40235"
       style="fill:#0f0c0c;fill-opacity:1;fill-rule:nonzero;stroke:none" />
    <path
       id="path146"
       d="m 470.91016,592.45703 c -0.29297,-2.19922 -1.66797,-9.40625 1.66797,-2.9375 3.33203,6.46875 3.39843,10.00391 3.60156,14.47266 0.19922,4.46875 0.39844,11.60547 0.39844,11.60547 0,0 -0.0664,1.19921 -0.46875,1.19921 -0.39844,0 -0.92969,0.14844 -0.92969,0.14844 0,0 -0.40235,2.65235 -1.13672,2.65235 -0.73438,0 -0.80078,-2.82032 -0.80078,-2.82032 l -1.33203,-0.24609 c 0,0 -0.86719,-0.19922 -0.86719,-1.33594 0,-1.13281 0.59766,-8.63672 0.59766,-11.95312 0,-3.31641 -0.29688,-7.52344 -0.73047,-10.78516"
       style="fill:#0f0c0c;fill-opacity:1;fill-rule:nonzero;stroke:none" />
    <path
       id="path148"
       d="m 111.5,637.85156 1.75,15.16797 5.25,14.25 -1.5,18.48047 1.5,12.5 9.75,2.53906 21,-7.03906 20.39063,-6.5 4.10937,8.75 20.25,0.25 20,2.5 17.83984,0.5 18.66016,-0.75 34,-2 13.96094,-11.75 20.28906,12.75 15.25,-2.64063 13.20703,0.89063 15.89063,-9 17.15234,10 23.25,0.25 17.10156,-6 3.48438,6.75 21.58594,-2.07031 21.50781,1.82031 15.07031,-1.25 4,-17.25 9.75,-3.5 1.5,-15.375 13.14844,-5.6875 L 508.25,636.25 467.17969,640.75 458.5,650.9375 443.25,636.25 l -13.31641,1.60156 -3.5,9.39844 L 410.25,642.5 390.52344,642 376.25,647.25 373.1875,637.85156 348.75,643.5 338.13281,645.25 329.5,639.5 312.34766,643.75 300,637.85156 291.75,644 279.37109,636.25 249.5,640 l -7,4.5 -17.03125,-6.64844 H 203.25 L 195.70313,640.75 182.5,637.85156 167.55859,644.25 l -16.30859,-5 -21.75,-3 z m 0,0"
       style="fill:#ffffff;fill-opacity:1;fill-rule:nonzero;stroke:none" />
    <path
       id="path150"
       d="m 507.375,645.36328 c -0.5,3.51172 -1.75,5.57422 -3.3125,6.94922 -1.5625,1.375 -3.375,3.0625 -4.625,2.875 -1.25,-0.1875 -1.75,-0.50391 -3.6875,-0.75 -1.9375,-0.25 -7,-0.375 -9.125,-0.4375 -2.125,-0.0625 -4.1875,-0.125 -5.125,-0.0625 -0.9375,0.0625 -2.1875,0.46484 -2.25,1.26562 -0.0625,0.79688 0,7.54688 0.0625,8.29688 0.0625,0.75 0,1.4375 0.4375,1.5 0.4375,0.0625 2.125,0 3.75,-0.3125 1.625,-0.3125 2.8125,-0.8125 4.3125,-0.8125 1.5,0 4.1875,0.625 3.9375,3.0625 -0.25,2.4375 -1,3.625 -2.75,4.8125 -1.75,1.1875 -2.25,1.8125 -5,1.8125 h -3.75 c -0.5,0 -0.6875,0.3125 -0.6875,0.875 0,0.5625 -0.125,9.875 0.0625,11.375 0.1875,1.5 0.4375,4.0625 -0.375,5.25 -0.8125,1.1875 -2.4375,1.98828 -3.8125,1.93359 -1.375,-0.0586 -4.25,-0.43359 -4.5,-2.74609 -0.25,-2.3125 -0.3125,-5.75 0,-8.6875 0.3125,-2.9375 0.5,-11.6875 0.5,-14.5625 0,-2.875 -0.54687,-6.0625 -0.71094,-8.8125 -0.16406,-2.75 0.22266,-5.0625 0,-6.9375 -0.22656,-1.875 -0.66406,-2.9375 -0.85156,-3.8125 -0.1875,-0.875 -0.30469,-2.25 0.50391,-2.75 0.80859,-0.5 1.49609,-0.0664 1.93359,-0.125 1.11719,-0.14844 4.75,-1.30078 7.5625,-1.80469 2.8125,-0.50781 7.5,-1.19531 11.8125,-1.63281 4.3125,-0.4375 9.25,-0.875 11.3125,-0.5 2.0625,0.375 4.875,1.23047 4.375,4.73828 m -40.44141,41.19922 c -0.24609,2.9375 -0.93359,4.6875 -4.43359,5 -3.5,0.3125 -6.30469,0.5625 -9.96484,0.25 -3.66016,-0.3125 -6.09766,-1.0625 -8.34766,-1 -2.25,0.0625 -8.25,2.0625 -10.4375,2.875 -2.1875,0.8125 -4.24219,1.61328 -5.46484,0.17578 0,0 -1.58985,-1.86328 0,-3.73828 1.58984,-1.875 2.77734,-2.3125 3.08984,-2.875 0.3125,-0.5625 0.375,-1.3125 0.75,-1.9375 0.375,-0.625 1.25,-1.125 1.6875,-2.4375 0.4375,-1.3125 1.0625,-3.3125 1,-6.125 -0.0625,-2.8125 0.0625,-7.0625 -0.1875,-10.125 -0.25,-3.0625 -0.875,-11.5625 -0.9375,-12.75 -0.0625,-1.1875 0.875,-1.5625 1.0625,-2.375 0.1875,-0.8125 -0.25,-4.0625 0.125,-5.5 0.375,-1.4375 1,-2.875 3.25,-3.1875 1.82031,-0.25391 4.125,0.29297 4.75,2.55078 0.625,2.26172 1,8.57422 1.0625,11.82422 0.0625,3.25 1.65625,14.5 1.73438,18.3125 0.0781,3.8125 -0.0781,5.6875 0,6.125 0.0781,0.4375 0.32812,0.5625 1.07812,0.625 0.75,0.0625 2.125,-0.125 3.875,0 1.75,0.125 5.0625,0.375 7.5,0.3125 2.4375,-0.0625 3.625,-0.35547 5.0625,0.008 1.4375,0.36719 3.98828,1.05078 3.74609,3.99219 M 418.5,681.625 c -5.6875,3.9375 -13.5625,9 -20.4375,10.25 -6.875,1.25 -10.9375,1.45703 -15.9375,0.60156 -5,-0.85156 -8.3125,-2.53906 -12.125,-6.78906 -3.8125,-4.25 -5.75,-8.1875 -5.9375,-11.6875 -0.1875,-3.5 -0.125,-6.8125 3.6875,-10 3.8125,-3.1875 8.9375,-7.6875 10.6875,-9.25 1.75,-1.5625 4.1875,-4.5 6.75,-5.75 2.5625,-1.25 6.00781,-2.86328 8.75,-3.1875 3.51953,-0.41797 9.0625,-0.75 12.0625,0 3,0.75 8.5,4.25 11.0625,5.4375 2.5625,1.1875 8.9375,4.8125 10.1875,8 1.25,3.1875 1.25,7.5 0.625,10 -0.625,2.5 -3.6875,8.4375 -9.375,12.375 m -56.5,-26 c -0.5,1.5625 -1.5,3.4375 -2.625,6.625 -1.125,3.1875 -2.4375,7.3125 -4.375,11.5625 -1.9375,4.25 -4.375,8.0625 -5.8125,10.875 -1.4375,2.8125 -3.3125,5.4375 -4.3125,6.3125 -1,0.875 -3.5,2.125 -5.0625,0 -1.5625,-2.125 -4.1875,-5.5625 -4.8125,-7.625 -0.625,-2.0625 -1.1875,-4.25 -1.9375,-5.625 -0.75,-1.375 -6.9375,-6.02734 -8.75,-8.6875 -1.8125,-2.66406 -3.8125,-4.75 -4.375,-7.625 -0.5625,-2.875 0.1875,-5.75 0,-7.0625 -0.1875,-1.3125 -0.73828,-5.5 -0.21094,-7.6875 0.52344,-2.1875 2.0586,-3.79688 3.14844,-3.6875 1.43359,0.14062 3.25781,0.75 3.56641,2.25 0.30859,1.5 0.74609,5.75 1.24609,7.3125 0.5,1.5625 2.8125,6.875 4.125,8.625 1.3125,1.75 6.0625,6.8125 7.25,8 1.1875,1.1875 2.75,3 3.0625,3.0625 0.3125,0.0625 2.4375,-3.625 3.5625,-6 1.125,-2.375 2.8125,-7.25 3.5,-10.0625 0.6875,-2.8125 1.75,-6 3.8125,-7.625 2.0625,-1.625 5.75,-3.94141 8.3125,-4.94141 2.5625,-0.99609 4.4375,-1.29297 5.4375,-1.17578 1,0.11719 2.75,0.67969 2.3125,2.05469 -0.4375,1.375 -1.75,2.5 -2.5625,3.0625 -0.8125,0.5625 -2.25,2 -2.6875,3.125 -0.4375,1.125 -1.3125,3.375 -1.8125,4.9375 m -38.875,36.8125 c -2.25,0.25 -4.6875,-0.6875 -5.5625,-2.5 -0.875,-1.8125 -1.6875,-4.875 -2.3125,-6.125 -0.625,-1.25 -5.4375,-8.375 -7.6875,-11.25 -2.25,-2.875 -6,-5.5625 -7.875,-11.1875 -1.875,-5.625 -2.0625,-13.8125 -1.875,-14.9375 0.1875,-1.125 1.31641,-2.89063 2.9375,-2.8125 1.07813,0.0547 3.3125,0.1875 4,1.8125 0.6875,1.625 1.5,3.8125 1.9375,6.375 0.4375,2.5625 1.125,5.625 1.6875,7.125 0.5625,1.5 3.625,4.75 5.375,6.8125 1.75,2.0625 7.375,8.5 8.5625,10.6875 1.1875,2.1875 4.25,9.625 4.125,11.6875 -0.125,2.0625 -1.0625,4.0625 -3.3125,4.3125 m -62.3125,-28.625 c 0.0625,0.4375 0,1.25 0.75,1.125 0.75,-0.125 5.875,-0.875 7.3125,-1.125 1.4375,-0.25 3.9375,-0.5 3.8125,1.5625 -0.125,2.0625 -0.5625,3.4375 -1.25,4.625 -0.6875,1.1875 -1.125,2 -2,2.0625 -0.875,0.0625 -3.3125,0.25 -5.125,0 -1.8125,-0.25 -3.375,-0.25 -3.375,-0.25 0,0 -0.6875,0.125 -0.6875,0.8125 0,0.6875 -0.0625,9.9375 -0.0625,9.9375 0,0 0.125,1.1875 1,1.75 0.875,0.5625 1.5,0.875 2.6875,0.875 1.1875,0 6,-1.25 8.125,-1.75 2.125,-0.5 6.125,-1.625 7,-2.0625 0.875,-0.4375 2.3125,-0.6875 3.3125,-0.5 1,0.1875 1.8125,0.625 1.6875,2.5625 -0.125,1.9375 -0.0625,5.375 -0.375,6.375 -0.3125,1 -0.75,2.4375 -2.6875,2.875 -1.9375,0.4375 -11.1875,0.25 -14.375,0.4375 -3.1875,0.1875 -7.375,0.3125 -9.0625,0.5 -1.6875,0.1875 -4,0.9375 -4.875,1 -0.875,0.0625 -1.9375,-0.5625 -2.6875,-1.375 -0.75,-0.8125 -1.3125,-1.875 -1.0625,-2.625 0.25,-0.75 1.3125,-2.8125 1.6875,-4.375 0.375,-1.5625 0.5625,-11.875 0.5625,-15.9375 0,-4.0625 0.5625,-11.875 -0.0625,-13.875 -0.625,-2 -2,-4.25 -2.5,-5.5625 -0.5,-1.3125 -0.90234,-2.23047 -0.8125,-2.8125 0.20703,-1.35938 1.25,-3.0625 2.3125,-3.5625 1.0625,-0.5 2.125,-0.8125 3.75,-0.875 1.625,-0.0625 9.25,-0.3125 13.625,-0.5625 4.375,-0.25 12.6875,-0.60938 14.25,-0.61719 1.5625,-0.008 2.8125,0.49219 3.0625,1.49219 0.25,1 -0.3125,3.25 -1.125,5.1875 -0.8125,1.9375 -1.625,4.25 -3.5625,4.375 -1.9375,0.125 -6.25,-0.125 -10.1875,0 -3.9375,0.125 -7.9375,0.625 -8.3125,0.5 -0.375,-0.125 -0.875,0.25 -0.8125,0.9375 0.0625,0.6875 0,8.4375 0.0625,8.875 m -15.5625,32.375 c -0.375,0.5 -4.5625,0.5625 -7.0625,0.4375 -2.5,-0.125 -8.5,-0.125 -11.125,-1.5 -2.625,-1.375 -4.9375,-4.75 -9.0625,-7.3125 -4.125,-2.5625 -5.375,-4 -6.625,-4.375 -1.25,-0.375 -2,-0.3125 -2.25,0 -0.25,0.3125 -0.3125,2.9375 -0.1875,3.6875 0.125,0.75 1.625,3.1875 1.4375,4.4375 -0.1875,1.25 -0.9375,2.39453 -1.6875,2.78906 -0.75,0.39844 -1.625,0.96094 -3.8125,0.96094 -2.1875,0 -3.875,-0.1875 -5,-0.6875 -1.125,-0.5 -1.625,-1.125 -1.625,-2.4375 0,-1.3125 0.5625,-3.25 0.8125,-5.8125 0.25,-2.5625 1.125,-15.4375 1.25,-21.25 0.125,-5.8125 0.1875,-14.75 0,-16.5625 -0.1875,-1.8125 -0.375,-3.5625 1.125,-5.125 0.86719,-0.90234 2.625,-0.9375 4,-0.9375 1.375,0 9.8125,-0.125 12.5,0 2.6875,0.125 9.0625,0.875 11.875,1.75 2.8125,0.875 7.5,3.25 10.125,6.6875 2.625,3.4375 3.1875,5.75 3.25,6.75 0.0625,1 0.6875,1.4375 0.4375,3.1875 -0.25,1.75 -0.9375,4.87109 -3.125,7.21875 -2.1875,2.34375 -4.625,4.40625 -7.75,5.65625 -3.125,1.25 -6.375,2.875 -8.625,3.25 -2.25,0.375 -4.875,0.9375 -4.875,0.9375 0,0 0.875,0.875 2.125,1.875 1.25,1 3.75,3.625 6.75,5.125 3,1.5 5.75,2.75 7.5,3.1875 1.75,0.4375 3.25,0.9375 4.875,2 1.625,1.0625 3.875,2.4375 4.375,3.1875 0.5,0.75 0.75,2.375 0.375,2.875 m -56.125,-3.3125 c -0.875,1.125 -3,1.75 -4.8125,1.75 -1.8125,0 -4.4375,-0.1875 -5.4375,-1.1875 -1,-1 -1.5,-3.0625 -1.3125,-4.125 0.1875,-1.0625 1.0625,-3.4375 1.3125,-5.3125 0.25,-1.875 0.94922,-8.875 0.82422,-13.625 -0.125,-4.75 -1.19922,-15.5 -1.57422,-17.75 -0.375,-2.25 -1.5625,-5.5625 -1,-7.5625 0.5625,-2 2.5625,-3.125 5.125,-3.4375 2.05078,-0.25 4.6875,0.25 5.6875,0.6875 1,0.4375 1.8125,1.25 1.8125,2.8125 0,1.5625 -1.25,5.5 -1.5,8.4375 -0.25,2.9375 -0.3125,10.91406 -0.3125,13.86328 0,2.94922 0.125,9.88672 0.4375,12.19922 0.3125,2.3125 1.75,6.125 1.75,8 0,1.875 -0.125,4.125 -1,5.25 m -17.6875,-22.75 c -1.5625,8.1875 -4.5,10 -21.1875,16.5 -16.6875,6.5 -21.375,7.25 -23.6875,7.625 -2.3125,0.375 -5.3125,-0.25 -5.8125,-2.125 -0.5,-1.875 0.25,-7.25 0.5625,-8.5 0.3125,-1.25 0.4375,-1.875 1.125,-2.1875 0.6875,-0.3125 1.25,-0.0625 1.3125,-0.3125 0.0625,-0.25 0.75,-8.95703 0.1875,-13.69922 -0.5625,-4.73828 -2.625,-13.73828 -2.875,-14.05078 -0.25,-0.3125 -1.3125,0.0625 -1.75,-0.25 -0.4375,-0.3125 -1.5625,-5.125 -2.125,-6.4375 -0.5625,-1.3125 -1.12891,-3.24609 -0.5,-3.875 0.94531,-0.94531 1.9375,-1.3125 3.3125,-1.5625 1.375,-0.25 8.5,-0.75 10.875,-0.75 2.375,0 13.75,0.875 17.0625,1.625 3.3125,0.75 14.1875,3 18.625,8.9375 C 171,657 173,661.9375 171.4375,670.125 m 346.125,-23.3125 c -0.5625,-3 -2.1875,-9.875 -2.75,-11.75 -0.5625,-1.875 -2.5625,-6.0625 -3.25,-6.8125 -0.6875,-0.75 -1.8125,-0.625 -3.3125,-0.375 -1.5,0.25 -18.3125,2.9375 -25.25,3.75 -6.9375,0.8125 -17.75,2.4375 -18.8125,2.6875 -1.0625,0.25 -1.6875,1.125 -2.3125,2.55078 -0.625,1.42969 -2.375,5.51172 -3.1875,6.07422 -0.8125,0.5625 -1.625,-0.125 -2.375,-0.75 -0.75,-0.625 -2.5625,-3.625 -2.9375,-4.5625 -0.375,-0.9375 -1.5625,-4.125 -2.1875,-4.875 -0.625,-0.75 -2.0625,-1.375 -3.25,-1.5625 C 446.75,631 443.875,631.25 441.4375,631.625 439,632 425.3125,632.75 424.75,632.75 c -0.5625,0 -1.3125,0.3125 -1.5,0.9375 -0.1875,0.625 -0.0625,2.125 -0.4375,3.375 -0.375,1.25 -0.5,2.8125 -1.25,3.04297 C 420.8125,640.33594 420.125,640 419.125,639 c -1,-1 -1.875,-1.4375 -2.4375,-1.3125 -0.5625,0.125 -0.375,0.75 -0.875,0.8125 -0.5,0.0625 -1.4375,-0.375 -7.0625,-2.0625 -5.625,-1.6875 -10.875,-1.375 -14.8125,-0.6875 -3.9375,0.6875 -9.8125,2.6875 -11,3.4375 -1.1875,0.75 -1.75,1.3125 -2.8125,0.5625 -1.0625,-0.75 -1.3125,-3.6875 -1.5,-5.1875 -0.1875,-1.5 -0.5625,-1.9375 -1.4375,-1.9375 -0.875,0 -1,1.125 -1.9375,1.1875 -0.9375,0.0625 -8.0625,0.0625 -12,0.4375 -3.9375,0.375 -5.8125,1.375 -8.5625,2.375 -2.75,1 -8.625,2.5 -10.3125,2.6875 -1.6875,0.1875 -2.875,-0.5 -3.125,-2.1875 -0.25,-1.6875 -1.0625,-2.1875 -2.8125,-2.1875 -1.75,0 -20.4375,0.5 -22.125,0.875 -1.6875,0.375 -4.8125,1.9375 -6.125,1.8125 -1.3125,-0.125 -2.875,-2.9375 -4.1875,-4.4375 -1.3125,-1.5 -3.4375,-1.3125 -4.75,-0.9375 -1.3125,0.375 -9.08203,3.83203 -10,4 -0.91797,0.16797 -1.5,-0.5 -2.08203,-1.57813 -0.58203,-1.07812 -1.08594,-2.2539 -1.41797,-3.0039 -0.33203,-0.75 -0.5,-1.16797 -1.91797,-1.07031 -1.41406,0.0938 -23,3.15234 -27.08203,3.57031 -4.08203,0.41797 -10.66797,1.33203 -12.41797,1.16406 -1.75,-0.16406 -1.83203,0.5 -2.08203,1.5 -0.25,1 -0.66797,1.75 -1.33203,1.91797 -0.66797,0.16797 -4.33594,-1.75 -7.75,-2.66797 -3.41797,-0.91406 -11.25,-2.25 -16.25,-2.91406 -5,-0.66797 -14.91797,-1.16797 -15.75,-1.33594 -0.83203,-0.16406 -1,-0.75 -1.91797,-1.08203 -0.91797,-0.33203 -2.5,-0.16797 -3.16797,0.94531 -0.66406,1.11719 -0.33203,3.38672 -0.91406,3.88672 -0.58203,0.5 -14.83594,0.0273 -19.25,-0.33203 -4.41797,-0.35938 -12.33594,-1.25 -13.75,-0.44141 -1.41797,0.80469 -0.66797,3.19141 -2.08594,3.10938 -1.41406,-0.082 -12.75,-3.5 -21.25,-4.91797 -8.5,-1.41797 -24.5,-1.5 -29.58203,-1.08203 -5.08203,0.41797 -5,3.25 -5,5.5 0,0 -0.3125,2.89453 0,8.33203 0.3125,5.4375 1.8125,10.8125 2.3125,11.9375 0.5,1.125 1.4375,1.3125 2.375,2 0.9375,0.6875 1.4375,2.125 1.8125,4.3125 0.375,2.1875 1.125,12.125 1.1875,13.75 0.0625,1.625 -0.9375,2.25 -1.5,3.0625 -0.5625,0.8125 -2,1.1875 -2.25,1.8125 -0.25,0.625 0.4375,1.75 0.8125,2.5 0.375,0.75 0.8125,2.125 0.8125,3.75 0,1.625 0.5625,8.0625 1.0625,10.5 0.5,2.4375 2,5.5625 4,6.4375 2,0.875 5,1.1875 8.8125,0.9375 3.8125,-0.25 9.3125,-2.4375 13.375,-3.6875 4.0625,-1.25 10.875,-3.5 14,-4.5625 3.125,-1.0625 8.9375,-2.875 9.625,-3 0.6875,-0.125 1.5625,0.125 2,0.875 0.4375,0.75 0.9375,2.9375 1.1875,3.9375 0.25,1 1.4375,1.3125 2.25,1.125 0.8125,-0.1875 3.4375,-0.625 5.5,-0.8125 2.0625,-0.1875 8.5,-0.375 9.0625,-0.375 0.5625,0 1.125,0.5 1.25,0.9375 0.125,0.4375 1.1875,0.75 2.1875,0.625 1,-0.125 5.0625,-0.75 6.625,-1.0625 1.5625,-0.3125 2.0625,0.3125 2.75,1.375 0.6875,1.0625 2.75,4.875 4.125,5.125 1.375,0.25 7.625,-1.3125 11.0625,-1.75 3.4375,-0.4375 8.9375,-0.75 10.125,-1 1.1875,-0.25 0.75,-0.9375 1.1875,-1.875 0.4375,-0.9375 2.3125,-0.875 2.8125,-0.0625 0.5,0.8125 0.5,2.75 0.6875,3.5625 0.1875,0.8125 1.1875,1.125 2.375,1.125 1.1875,0 6,-0.0625 10.5,-0.375 4.5,-0.3125 8.0625,-1.0625 9.1875,-1.75 1.125,-0.6875 2,-2.8125 2.4375,-2.875 0.4375,-0.0625 1.1875,0.75 2.375,0.875 1.1875,0.125 10.0625,0.625 15.1875,0.8125 5.125,0.1875 17.75,0.1875 18.9375,0.375 1.1875,0.1875 0.4375,1.1875 2.25,1.35547 1.8125,0.16797 2.375,-4.35547 3,-4.73047 0.625,-0.375 3.125,0.0625 3.625,-0.5 0.5,-0.5625 1,-2.5625 1.5,-4.0625 0.5,-1.5 1.5,-4.0625 2.8125,-4.0625 1.3125,0 2,1.75 4.0625,3.6875 2.0625,1.9375 8.6875,8.125 9.5625,8.875 0.875,0.75 1.9375,0.9375 3.25,0.6875 1.3125,-0.25 6.75,-1.375 9.0625,-1.5625 2.3125,-0.1875 7.875,0.0625 8.3125,-0.4375 0.4375,-0.5 0.6875,-2.6875 1.1875,-3.875 0.5,-1.1875 2.25,-0.6875 2.875,-0.0625 0.625,0.625 1.875,3.125 2.25,3.8125 0.375,0.6875 1.4375,1.1875 2.5,1.12891 1.0625,-0.0547 4.0625,-0.75391 6,-0.87891 1.9375,-0.125 7.5,-0.0625 8.25,-0.5 0.75,-0.4375 3.375,-5.0625 4,-6.125 0.625,-1.0625 2.4375,-2.6875 3.25,-2.5625 0.8125,0.125 3,2.625 4.9375,4.1875 1.9375,1.5625 5,3.25 7.1875,4.25 2.1875,1 3.1875,1 6.3125,1.1875 3.125,0.1875 13.875,-0.0625 19.75,-0.6875 5.875,-0.625 10.5,-2.8125 12,-3.625 1.5,-0.8125 2.3125,-0.125 2.625,0.5625 0.3125,0.6875 -0.0625,2.75 0.625,3.1875 0.6875,0.4375 3.4375,-0.25 5.8125,-0.375 2.375,-0.125 18,-0.8125 20.375,-0.625 2.375,0.1875 5.8125,0.9375 8,1.0625 2.1875,0.125 5.4375,-0.625 5.9375,-0.875 0.5,-0.25 1.0625,-2.0625 1.8125,-2 0.75,0.0625 0.875,1.1875 1.125,1.75 0.25,0.5625 1.625,0.75 3.25,0.8125 1.625,0.0625 22,0.4375 23.1875,0.625 1.1875,0.1875 2.1875,0.6875 3.375,0.625 1.1875,-0.0625 1,-1.3125 1.0625,-2.4375 0.0625,-1.125 0.5,-11.3125 1,-13.5625 0.5,-2.25 2.3125,-3.75 3.3125,-4.0625 1,-0.3125 3.6875,-0.75 4.6875,-1.0625 1,-0.3125 1.5625,-0.75 1.8125,-1.6875 0.25,-0.9375 0.6875,-4.3125 0.9375,-6.5625 0.25,-2.25 -0.5625,-11 -0.375,-11.875 0.1875,-0.875 1.125,-1.625 1.6875,-1.9375 0.5625,-0.3125 2.75,-0.5 4.5625,-0.6875 1.8125,-0.1875 5.4375,-1.0625 7.375,-1.9375 1.9375,-0.875 1.8125,-1.8125 1.9375,-3.125 0.125,-1.3125 -0.4375,-5.8125 -1,-8.8125"
       style="fill:#0f0c0c;fill-opacity:1;fill-rule:nonzero;stroke:none" />
    <path
       id="path152"
       d="m 231.64063,662.57422 c 0.30859,-1 0.34765,-2.71094 -0.52735,-4.27344 -0.875,-1.5625 -3.17578,-2.67578 -5.80078,-3.86328 -2.625,-1.1875 -5.9375,-1.27734 -8.9375,-1.40234 -3,-0.125 -5.57812,0.42187 -6.82812,0.91406 -0.94922,0.375 -1.14844,1.38672 -1.31641,1.94922 -0.16797,0.5625 -0.16797,3.16406 -0.10547,4.60156 0.0625,1.4375 -0.125,8.625 0,9.5 0.125,0.875 0.8125,0.8125 1.6875,0.875 0.875,0.0625 4.5625,-0.125 7.5625,-0.625 3,-0.5 5.625,-1.8125 9.25,-3.375 3.625,-1.5625 4.70313,-3.30078 5.01563,-4.30078"
       style="fill:#0f0c0c;fill-opacity:1;fill-rule:nonzero;stroke:none" />
    <path
       id="path154"
       d="m 159.75,656.6875 c -2.375,-1.5625 -7.4375,-3.5 -10.6875,-4.1875 -3.25,-0.6875 -10.875,-1.5625 -12.4375,-1.5625 -1.5625,0 -3.01562,0.33984 -3.75,0.75 -0.63281,0.35547 -0.875,1.75 -0.8125,3.5625 0.0625,1.8125 1,9.6875 1.3125,14.75 0.3125,5.0625 0.4375,10.0625 0.5,10.625 0.0625,0.5625 0.5625,0.5625 1.25,0.4375 0.6875,-0.125 5.0625,-0.8125 11.9375,-3 6.875,-2.1875 12,-5.75 13.9375,-7.5625 1.9375,-1.8125 2.1875,-5.125 2.4375,-6.9375 0.25,-1.8125 -1.3125,-5.3125 -3.6875,-6.875"
       style="fill:#0f0c0c;fill-opacity:1;fill-rule:nonzero;stroke:none" />
    <path
       id="path156"
       d="m 404.1875,671 c -1.1875,0.75 -6.5625,2.75 -9.75,2.75 -3.1875,0 -6.75,-1.0625 -6.375,-3.8125 0.375,-2.75 2.9375,-4.0625 4.875,-4.625 1.9375,-0.5625 4.375,-1.41406 5.25,-1.4375 2.62891,-0.0742 4.6875,0.1875 6,0.8125 1.3125,0.625 2.0625,1.33203 2.0625,2.79297 0,1.45703 -0.875,2.76953 -2.0625,3.51953 m 7.875,-12.375 c -2.0625,-0.9375 -3.75,-2.3125 -6.0625,-3.1875 -2.3125,-0.875 -5.29297,-1.30859 -8.375,-0.75 -2.75,0.5 -8.1875,3.8125 -10.9375,5.5625 -2.75,1.75 -7.875,5.9375 -10.25,7.98437 -2.375,2.04688 -3.25,4.57813 -3.25,5.82813 0,1.25 1.875,4.625 7.75,6.1875 5.875,1.5625 11.125,1.9375 16.6875,1.4375 5.5625,-0.5 8.875,-2.75 13.0625,-5.3125 4.1875,-2.5625 6.0625,-6.4375 7.125,-8.625 1.0625,-2.1875 0.5,-4.3125 -0.5,-5.5625 -1,-1.25 -3.1875,-2.625 -5.25,-3.5625"
       style="fill:#0f0c0c;fill-opacity:1;fill-rule:nonzero;stroke:none" />
    <path
       id="path158"
       d="m 504.51953,700.31641 h 1.21485 c 0.57812,0 0.97265,-0.0899 1.18359,-0.26172 0.21094,-0.17578 0.32031,-0.40235 0.32031,-0.6875 0,-0.1836 -0.0508,-0.34766 -0.15234,-0.49219 -0.10547,-0.14453 -0.2461,-0.25 -0.42578,-0.32422 -0.17969,-0.0703 -0.51563,-0.10547 -1.00391,-0.10547 h -1.13672 z m -1,3.48437 v -6.19531 h 2.12891 c 0.72656,0 1.2539,0.0586 1.57812,0.17187 0.32813,0.11328 0.58594,0.3125 0.78125,0.59766 0.19532,0.28516 0.28907,0.58984 0.28907,0.91016 0,0.45312 -0.16016,0.84375 -0.48438,1.17968 -0.32031,0.33594 -0.75391,0.52735 -1.28516,0.56641 0.21875,0.0938 0.39454,0.20312 0.52735,0.32812 0.24609,0.2461 0.55469,0.65235 0.91406,1.23047 l 0.75781,1.21094 h -1.22265 l -0.55078,-0.97656 c -0.42969,-0.76953 -0.78125,-1.25 -1.04297,-1.44141 -0.1836,-0.14062 -0.45313,-0.21484 -0.80078,-0.21484 h -0.58985 v 2.63281 z m 2.52735,-7.98828 c -0.8086,0 -1.59766,0.20703 -2.36329,0.62109 -0.76562,0.41407 -1.36328,1.00782 -1.79687,1.77735 -0.43359,0.76953 -0.64844,1.57422 -0.64844,2.41015 0,0.82813 0.21485,1.6211 0.63672,2.38282 0.42578,0.76171 1.01953,1.35546 1.78125,1.78125 0.76172,0.42187 1.55859,0.63281 2.39063,0.63281 0.82812,0 1.625,-0.21094 2.38671,-0.63281 0.76563,-0.42579 1.35938,-1.01954 1.77735,-1.78125 0.42578,-0.76172 0.63672,-1.55469 0.63672,-2.38282 0,-0.83593 -0.21875,-1.64062 -0.64453,-2.41015 -0.42969,-0.76953 -1.03125,-1.36328 -1.79688,-1.77735 -0.76953,-0.41406 -1.55469,-0.62109 -2.35937,-0.62109 m 0,-0.95313 c 0.96484,0 1.91015,0.2461 2.83203,0.74219 0.91797,0.4961 1.63672,1.20703 2.15234,2.12891 0.51172,0.92578 0.76953,1.88672 0.76953,2.89062 0,0.99219 -0.2539,1.94532 -0.75781,2.86328 -0.50781,0.91407 -1.21875,1.625 -2.12891,2.13282 -0.91406,0.5039 -1.87109,0.75781 -2.86718,0.75781 -1,0 -1.95313,-0.25391 -2.86719,-0.75781 -0.91406,-0.50782 -1.625,-1.21875 -2.13281,-2.13282 -0.50782,-0.91796 -0.76172,-1.87109 -0.76172,-2.86328 0,-1.0039 0.25781,-1.96484 0.77343,-2.89062 0.51954,-0.92188 1.23438,-1.63281 2.15625,-2.12891 0.92188,-0.49609 1.86719,-0.74219 2.83204,-0.74219"
       style="fill:#211e1e;fill-opacity:1;fill-rule:nonzero;stroke:none" />
  </g>
</svg>